<?xml version="1.0" standalone="no"?>
<!DOCTYPE svg PUBLIC "-//W3C//DTD SVG 20010904//EN"
 "http://www.w3.org/TR/2001/REC-SVG-20010904/DTD/svg10.dtd">
<svg version="1.0" xmlns="http://www.w3.org/2000/svg"
 width="1024.000000pt" height="1024.000000pt" viewBox="0 0 1024.000000 1024.000000"
 preserveAspectRatio="xMidYMid meet">
<metadata>
Created by potrace 1.14, written by Peter Selinger 2001-2017
</metadata>
<g transform="translate(0.000000,1024.000000) scale(0.100000,-0.100000)"
fill="#000000" stroke="none">
<path d="M0 5120 l0 -5120 5120 0 5120 0 0 5120 0 5120 -5120 0 -5120 0 0
-5120z m7782 4701 c-3 -25 6 -42 58 -103 34 -40 66 -82 71 -93 6 -11 0 -7 -13
10 -13 16 -47 58 -75 92 -49 57 -65 98 -46 116 10 10 10 9 5 -22z m55 23 c-3
-3 -12 -4 -19 -1 -8 3 -5 6 6 6 11 1 17 -2 13 -5z m220 -137 c166 -111 455
-325 523 -387 l35 -32 -35 27 c-259 198 -420 315 -554 402 -88 59 -165 111
-171 116 -23 22 44 -20 202 -126z m-1856 44 c216 -30 299 -44 299 -51 0 -4 11
-5 25 -2 15 2 25 0 25 -7 0 -7 5 -9 11 -6 13 9 309 -55 309 -66 0 -5 7 -6 15
-3 16 7 159 -35 151 -43 -7 -7 -340 70 -344 79 -2 4 -8 6 -13 3 -4 -3 -75 8
-156 24 -408 83 -772 101 -1121 56 -68 -8 -127 -13 -133 -10 -5 4 -9 1 -9 -6
0 -7 -13 -10 -35 -7 -19 2 -35 0 -35 -5 0 -5 -16 -7 -35 -5 -19 2 -35 0 -35
-5 0 -5 -13 -7 -30 -5 -16 2 -31 2 -32 -2 -5 -10 -167 -42 -178 -35 -6 3 -10
2 -10 -2 0 -14 -183 -55 -206 -47 -11 4 -16 3 -11 -2 8 -8 -79 -33 -118 -33
-38 -1 7 16 118 43 59 15 112 24 117 21 4 -3 10 -1 12 5 5 14 328 76 543 104
259 33 660 36 876 7z m-283 -58 c-65 -2 -171 -2 -235 0 -65 1 -12 3 117 3 129
0 182 -2 118 -3z m-395 -10 c-13 -2 -35 -2 -50 0 -16 2 -5 4 22 4 28 0 40 -2
28 -4z m610 0 c-13 -2 -35 -2 -50 0 -16 2 -5 4 22 4 28 0 40 -2 28 -4z m-715
-10 c-10 -2 -26 -2 -35 0 -10 3 -2 5 17 5 19 0 27 -2 18 -5z m800 0 c-10 -2
-28 -2 -40 0 -13 2 -5 4 17 4 22 1 32 -1 23 -4z m-880 -10 c-10 -2 -26 -2 -35
0 -10 3 -2 5 17 5 19 0 27 -2 18 -5z m955 0 c-7 -2 -21 -2 -30 0 -10 3 -4 5
12 5 17 0 24 -2 18 -5z m-1030 -10 c-7 -2 -21 -2 -30 0 -10 3 -4 5 12 5 17 0
24 -2 18 -5z m1100 0 c-7 -2 -21 -2 -30 0 -10 3 -4 5 12 5 17 0 24 -2 18 -5z
m1738 -58 c55 -35 99 -67 99 -70 0 -2 -44 24 -97 59 l-98 65 -6 -27 c-6 -26
-7 -26 -8 6 0 17 2 32 5 32 4 0 51 -29 105 -65z m-2903 48 c-10 -2 -26 -2 -35
0 -10 3 -2 5 17 5 19 0 27 -2 18 -5z m1225 0 c-7 -2 -21 -2 -30 0 -10 3 -4 5
12 5 17 0 24 -2 18 -5z m-1300 -10 c-7 -2 -21 -2 -30 0 -10 3 -4 5 12 5 17 0
24 -2 18 -5z m1350 0 c-7 -2 -19 -2 -25 0 -7 3 -2 5 12 5 14 0 19 -2 13 -5z
m-1420 -10 c-7 -2 -21 -2 -30 0 -10 3 -4 5 12 5 17 0 24 -2 18 -5z m1480 0
c-7 -2 -21 -2 -30 0 -10 3 -4 5 12 5 17 0 24 -2 18 -5z m-1536 -9 c-3 -3 -12
-4 -19 -1 -8 3 -5 6 6 6 11 1 17 -2 13 -5z m1586 -1 c-7 -2 -19 -2 -25 0 -7 3
-2 5 12 5 14 0 19 -2 13 -5z m-1626 -9 c-3 -3 -12 -4 -19 -1 -8 3 -5 6 6 6 11
1 17 -2 13 -5z m1676 -1 c-7 -2 -19 -2 -25 0 -7 3 -2 5 12 5 14 0 19 -2 13 -5z
m-1720 -10 c-7 -2 -19 -2 -25 0 -7 3 -2 5 12 5 14 0 19 -2 13 -5z m1764 1 c-3
-3 -12 -4 -19 -1 -8 3 -5 6 6 6 11 1 17 -2 13 -5z m1268 -24 c9 -16 13 -30 11
-30 -3 0 -12 14 -21 30 -9 17 -13 30 -11 30 3 0 12 -13 21 -30z m-3078 14 c-3
-3 -12 -4 -19 -1 -8 3 -5 6 6 6 11 1 17 -2 13 -5z m1883 -4 c20 -6 21 -8 5 -8
-11 0 -31 4 -45 8 -20 6 -21 8 -5 8 11 0 31 -4 45 -8z m1274 -40 c5 -17 4 -20
-2 -10 -5 8 -13 26 -16 40 -5 17 -4 20 2 10 5 -8 13 -26 16 -40z m-3197 34
c-3 -3 -12 -4 -19 -1 -8 3 -5 6 6 6 11 1 17 -2 13 -5z m-332 -14 c-11 -5 -29
-8 -40 -8 -16 0 -15 2 5 8 34 11 60 11 35 0z m292 4 c-3 -3 -12 -4 -19 -1 -8
3 -5 6 6 6 11 1 17 -2 13 -5z m2020 0 c-3 -3 -12 -4 -19 -1 -8 3 -5 6 6 6 11
1 17 -2 13 -5z m270 0 c-3 -3 -12 -4 -19 -1 -8 3 -5 6 6 6 11 1 17 -2 13 -5z
m-2347 -14 c-14 -4 -34 -8 -45 -8 -16 0 -15 2 5 8 14 4 34 8 45 8 16 0 15 -2
-5 -8z m2117 4 c-3 -3 -12 -4 -19 -1 -8 3 -5 6 6 6 11 1 17 -2 13 -5z m276 -1
c-7 -2 -19 -2 -25 0 -7 3 -2 5 12 5 14 0 19 -2 13 -5z m-2708 -13 c-11 -5 -27
-9 -35 -9 -9 0 -8 4 5 9 11 5 27 9 35 9 9 0 8 -4 -5 -9z m2472 4 c-3 -3 -12
-4 -19 -1 -8 3 -5 6 6 6 11 1 17 -2 13 -5z m303 -4 c20 -6 21 -8 5 -8 -11 0
-29 3 -40 8 -25 11 1 11 35 0z m-2533 -6 c-3 -3 -12 -4 -19 -1 -8 3 -5 6 6 6
11 1 17 -2 13 -5z m2270 0 c-3 -3 -12 -4 -19 -1 -8 3 -5 6 6 6 11 1 17 -2 13
-5z m-2570 -10 c-3 -3 -12 -4 -19 -1 -8 3 -5 6 6 6 11 1 17 -2 13 -5z m260 0
c-3 -3 -12 -4 -19 -1 -8 3 -5 6 6 6 11 1 17 -2 13 -5z m2378 -4 c25 -11 -1
-11 -35 0 -20 6 -21 8 -5 8 11 0 29 -3 40 -8z m270 0 c13 -5 14 -9 5 -9 -8 0
-24 4 -35 9 -13 5 -14 9 -5 9 8 0 24 -4 35 -9z m-2948 -6 c-3 -3 -12 -4 -19
-1 -8 3 -5 6 6 6 11 1 17 -2 13 -5z m260 0 c-3 -3 -12 -4 -19 -1 -8 3 -5 6 6
6 11 1 17 -2 13 -5z m3833 -145 c69 -53 143 -113 165 -133 22 -20 -19 9 -90
66 -72 57 -163 127 -203 156 -39 30 -72 56 -72 59 0 6 35 -19 200 -148z
m-4133 135 c-3 -3 -12 -4 -19 -1 -8 3 -5 6 6 6 11 1 17 -2 13 -5z m260 0 c-3
-3 -12 -4 -19 -1 -8 3 -5 6 6 6 11 1 17 -2 13 -5z m2538 -4 c25 -11 -1 -11
-35 0 -20 6 -21 8 -5 8 11 0 29 -3 40 -8z m260 0 c13 -5 14 -9 5 -9 -8 0 -24
4 -35 9 -13 5 -14 9 -5 9 8 0 24 -4 35 -9z m655 -25 c0 -5 -5 -3 -10 5 -5 8
-10 20 -10 25 0 6 5 3 10 -5 5 -8 10 -19 10 -25z m76 -30 c8 -19 12 -35 10
-35 -6 0 -46 89 -46 99 1 9 19 -24 36 -64z m-3569 49 c-3 -3 -12 -4 -19 -1 -8
3 -5 6 6 6 11 1 17 -2 13 -5z m-290 -10 c-3 -3 -12 -4 -19 -1 -8 3 -5 6 6 6
11 1 17 -2 13 -5z m250 0 c-3 -3 -12 -4 -19 -1 -8 3 -5 6 6 6 11 1 17 -2 13
-5z m2670 0 c-3 -3 -12 -4 -19 -1 -8 3 -5 6 6 6 11 1 17 -2 13 -5z m-2960 -10
c-3 -3 -12 -4 -19 -1 -8 3 -5 6 6 6 11 1 17 -2 13 -5z m250 0 c-3 -3 -12 -4
-19 -1 -8 3 -5 6 6 6 11 1 17 -2 13 -5z m2750 0 c-3 -3 -12 -4 -19 -1 -8 3 -5
6 6 6 11 1 17 -2 13 -5z m283 -9 c19 -7 28 -13 20 -13 -8 0 -31 6 -50 13 -19
7 -28 13 -20 13 8 0 31 -6 50 -13z m-3335 -5 c-11 -5 -27 -9 -35 -9 -9 0 -8 4
5 9 11 5 27 9 35 9 9 0 8 -4 -5 -9z m262 4 c-3 -3 -12 -4 -19 -1 -8 3 -5 6 6
6 11 1 17 -2 13 -5z m2830 0 c-3 -3 -12 -4 -19 -1 -8 3 -5 6 6 6 11 1 17 -2
13 -5z m-2870 -10 c-3 -3 -12 -4 -19 -1 -8 3 -5 6 6 6 11 1 17 -2 13 -5z
m3732 -149 c0 -5 -18 24 -39 65 -21 41 -39 80 -39 85 0 6 18 -24 39 -65 21
-41 39 -79 39 -85z m-4012 139 c-3 -3 -12 -4 -19 -1 -8 3 -5 6 6 6 11 1 17 -2
13 -5z m228 -4 c-11 -5 -27 -9 -35 -9 -9 0 -8 4 5 9 11 5 27 9 35 9 9 0 8 -4
-5 -9z m2992 4 c-3 -3 -12 -4 -19 -1 -8 3 -5 6 6 6 11 1 17 -2 13 -5z m-3272
-14 c-11 -5 -27 -9 -35 -9 -9 0 -8 4 5 9 11 5 27 9 35 9 9 0 8 -4 -5 -9z
m3330 0 c13 -5 14 -9 5 -9 -8 0 -24 4 -35 9 -13 5 -14 9 -5 9 8 0 24 -4 35 -9z
m220 0 c13 -6 15 -9 5 -9 -8 0 -22 4 -30 9 -18 12 -2 12 25 0z m-3328 -6 c-3
-3 -12 -4 -19 -1 -8 3 -5 6 6 6 11 1 17 -2 13 -5z m-292 -14 c-11 -5 -27 -9
-35 -9 -9 0 -8 4 5 9 11 5 27 9 35 9 9 0 8 -4 -5 -9z m252 4 c-3 -3 -12 -4
-19 -1 -8 3 -5 6 6 6 11 1 17 -2 13 -5z m3200 0 c-3 -3 -12 -4 -19 -1 -8 3 -5
6 6 6 11 1 17 -2 13 -5z m228 -4 c13 -6 15 -9 5 -9 -8 0 -22 4 -30 9 -18 12
-2 12 25 0z m-3468 -6 c-3 -3 -12 -4 -19 -1 -8 3 -5 6 6 6 11 1 17 -2 13 -5z
m-52 -14 c-11 -5 -27 -9 -35 -9 -9 0 -8 4 5 9 11 5 27 9 35 9 9 0 8 -4 -5 -9z
m3623 -15 c29 -9 52 -19 49 -21 -5 -5 -127 36 -127 43 0 3 6 3 13 1 6 -3 36
-13 65 -23z m376 9 c3 -8 2 -12 -4 -9 -6 3 -10 10 -10 16 0 14 7 11 14 -7z
m-4259 -4 c-11 -5 -27 -9 -35 -9 -9 0 -8 4 5 9 11 5 27 9 35 9 9 0 8 -4 -5 -9z
m3670 0 c13 -5 14 -9 5 -9 -8 0 -24 4 -35 9 -13 5 -14 9 -5 9 8 0 24 -4 35 -9z
m-3480 -10 c-11 -5 -27 -9 -35 -9 -9 0 -8 4 5 9 11 5 27 9 35 9 9 0 8 -4 -5
-9z m-305 -25 c-19 -7 -42 -13 -50 -13 -8 0 1 6 20 13 19 7 42 13 50 13 8 0
-1 -6 -20 -13z m247 9 c-3 -3 -12 -4 -19 -1 -8 3 -5 6 6 6 11 1 17 -2 13 -5z
m3653 -9 c19 -7 28 -13 20 -13 -8 0 -31 6 -50 13 -19 7 -28 13 -20 13 8 0 31
-6 50 -13z m553 -97 c54 -91 62 -100 127 -139 66 -39 97 -64 48 -38 -95 50
-127 79 -176 161 -55 92 -79 138 -65 123 5 -5 35 -54 66 -107z m-358 92 c13
-6 15 -9 5 -9 -8 0 -22 4 -30 9 -18 12 -2 12 25 0z m-3930 -10 c-11 -5 -27 -9
-35 -9 -9 0 -8 4 5 9 11 5 27 9 35 9 9 0 8 -4 -5 -9z m3835 -22 c10 -6 7 -7
-10 -2 -14 3 -32 11 -40 16 -10 6 -7 7 10 2 14 -3 32 -11 40 -16z m175 1 c5
-5 -5 -4 -23 2 -17 6 -32 13 -32 16 0 7 43 -8 55 -18z m-4350 -19 c-27 -10
-57 -18 -65 -18 -8 0 8 8 35 18 28 10 57 18 65 18 8 0 -7 -8 -35 -18z m240 10
c-11 -5 -27 -9 -35 -9 -9 0 -8 4 5 9 11 5 27 9 35 9 9 0 8 -4 -5 -9z m4150
-10 c3 -6 -1 -7 -9 -4 -18 7 -21 14 -7 14 6 0 13 -4 16 -10z m-135 -10 c8 -5
11 -10 5 -10 -5 0 -17 5 -25 10 -8 5 -10 10 -5 10 6 0 17 -5 25 -10z m277 -12
c-3 -8 -6 -5 -6 6 -1 11 2 17 5 13 3 -3 4 -12 1 -19z m602 -25 c2 -2 2 -5 -1
-8 -2 -3 -18 10 -34 28 l-29 32 30 -25 c17 -14 32 -26 34 -27z m-688 22 c19
-8 27 -14 19 -14 -14 0 -72 28 -59 29 4 0 22 -7 40 -15z m-4531 1 c0 -6 -123
-47 -127 -42 -2 2 22 13 54 24 62 22 73 24 73 18z m130 -27 c-46 -16 -89 -29
-95 -28 -14 1 147 57 165 57 8 0 -23 -13 -70 -29z m4260 21 c8 -5 11 -10 5
-10 -5 0 -17 5 -25 10 -8 5 -10 10 -5 10 6 0 17 -5 25 -10z m70 -30 c19 -11
31 -19 25 -19 -5 0 -26 8 -45 19 -19 11 -30 19 -25 19 6 0 26 -8 45 -19z m158
13 c-10 -2 -26 -2 -35 0 -10 3 -2 5 17 5 19 0 27 -2 18 -5z m875 -267 c68 -78
147 -197 147 -222 0 -5 -16 20 -36 56 -51 91 -88 136 -243 290 -111 110 -119
119 -41 49 52 -47 130 -125 173 -173z m-5634 240 c-2 -2 -146 -60 -319 -129
-173 -69 -394 -160 -490 -203 -96 -42 -220 -92 -275 -111 -55 -20 -104 -39
-108 -43 -13 -12 2 -50 18 -44 7 3 16 1 20 -5 4 -7 -5 -11 -23 -11 -26 0 -28
3 -31 44 -2 41 0 44 21 39 18 -4 20 -3 8 6 -15 11 -11 12 58 15 9 1 19 4 22 7
7 9 322 144 335 144 6 0 12 3 15 7 9 12 102 48 110 43 5 -3 10 -1 12 5 4 13
398 171 409 164 5 -3 9 -1 9 5 0 6 42 24 93 40 84 27 127 37 116 27z m161 -10
c0 -6 -93 -37 -97 -32 -2 2 15 11 39 19 47 17 58 19 58 13z m4540 -21 c25 -13
41 -24 35 -24 -5 0 -30 11 -55 24 -25 13 -40 24 -35 24 6 0 30 -11 55 -24z
m887 -259 c43 -52 86 -109 96 -127 17 -33 17 -33 0 -9 -101 138 -180 225 -318
349 -38 34 -22 22 37 -29 59 -50 142 -133 185 -184z m-5552 234 c-27 -12 -43
-12 -25 0 8 5 22 9 30 9 10 0 8 -3 -5 -9z m4740 -18 c-3 -3 -11 0 -18 7 -9 10
-8 11 6 5 10 -3 15 -9 12 -12z m-4825 -11 c-8 -5 -26 -11 -40 -15 -21 -5 -20
-3 5 9 32 15 60 20 35 6z m4865 -9 c-3 -3 -11 0 -18 7 -9 10 -8 11 6 5 10 -3
15 -9 12 -12z m1225 -26 c-1 -6 -7 0 -14 12 l-13 24 -26 -32 c-15 -17 -27 -28
-27 -24 0 4 12 21 27 36 26 27 29 28 40 12 7 -10 13 -23 13 -28z m-1110 -31
c0 -3 -22 6 -50 20 -27 14 -50 28 -50 30 0 3 23 -6 50 -20 28 -14 50 -28 50
-30z m-5060 36 c-8 -5 -26 -11 -40 -15 -21 -5 -20 -3 5 9 32 15 60 20 35 6z
m-80 -30 c-8 -5 -26 -11 -40 -15 -21 -5 -20 -3 5 9 32 15 60 20 35 6z m6274
-41 c5 -17 4 -20 -2 -10 -5 8 -13 26 -16 40 -5 17 -4 20 2 10 5 -8 13 -26 16
-40z m-1064 -6 c0 -2 -13 2 -30 11 -16 9 -30 18 -30 21 0 2 14 -2 30 -11 17
-9 30 -18 30 -21z m190 -39 c36 -23 76 -54 89 -69 23 -24 24 -28 9 -43 -14
-14 -21 -14 -48 -3 -17 7 -33 17 -36 21 -3 5 11 2 30 -8 28 -13 39 -14 48 -5
18 18 -28 61 -133 122 -49 29 -89 55 -89 57 0 6 63 -29 130 -72z m767 53 c-3
-8 -6 -5 -6 6 -1 11 2 17 5 13 3 -3 4 -12 1 -19z m-6247 2 c-8 -5 -19 -10 -25
-10 -5 0 -3 5 5 10 8 5 20 10 25 10 6 0 3 -5 -5 -10z m-50 -20 c-8 -5 -19 -10
-25 -10 -5 0 -3 5 5 10 8 5 20 10 25 10 6 0 3 -5 -5 -10z m5405 -35 l20 -16
-20 10 c-11 5 -29 17 -40 26 l-20 16 20 -10 c11 -5 29 -17 40 -26z m882 3 c-3
-7 -5 -2 -5 12 0 14 2 19 5 13 2 -7 2 -19 0 -25z m-6337 13 c-8 -5 -26 -11
-40 -15 -21 -5 -20 -3 5 9 32 15 60 20 35 6z m-90 -36 c-14 -8 -29 -14 -35
-14 -5 0 1 6 15 14 14 8 30 14 35 14 6 0 -1 -6 -15 -14z m5651 -47 l24 -20
-31 17 c-17 10 -41 26 -55 37 l-24 20 31 -17 c17 -10 41 -26 55 -37z m766 20
c-3 -7 -5 -2 -5 12 0 14 2 19 5 13 2 -7 2 -19 0 -25z m-6477 2 c-8 -5 -19 -10
-25 -10 -5 0 -3 5 5 10 8 5 20 10 25 10 6 0 3 -5 -5 -10z m6589 -58 c0 -11 -4
-9 -10 8 -6 13 -15 32 -22 40 -7 9 -2 5 11 -8 12 -13 22 -31 21 -40z m-6649
33 c-14 -8 -29 -14 -35 -14 -5 0 1 6 15 14 14 8 30 14 35 14 6 0 -1 -6 -15
-14z m6597 -7 c-3 -8 -6 -5 -6 6 -1 11 2 17 5 13 3 -3 4 -12 1 -19z m-70 -25
c-3 -10 -5 -4 -5 12 0 17 2 24 5 18 2 -7 2 -21 0 -30z m202 -58 c0 -11 -7 0
-15 25 -7 25 -13 50 -13 55 1 18 27 -59 28 -80z m-6799 60 c-14 -8 -29 -14
-35 -14 -5 0 1 6 15 14 14 8 30 14 35 14 6 0 -1 -6 -15 -14z m6657 -27 c-3 -7
-5 -2 -5 12 0 14 2 19 5 13 2 -7 2 -19 0 -25z m-6732 -4 c-16 -9 -36 -23 -42
-32 -8 -10 -13 -11 -13 -4 0 13 58 52 75 52 6 -1 -3 -8 -20 -16z m6662 -26
c-3 -7 -5 -2 -5 12 0 14 2 19 5 13 2 -7 2 -19 0 -25z m161 -63 c0 -11 -6 3
-14 30 -7 28 -13 55 -13 60 2 17 27 -69 27 -90z m-101 43 c-3 -7 -5 -2 -5 12
0 14 2 19 5 13 2 -7 2 -19 0 -25z m-6639 -10 c7 -7 12 -19 12 -29 0 -36 -115
-141 -235 -214 -52 -32 -13 0 68 55 85 58 157 132 157 162 0 10 -10 23 -22 28
-14 5 -17 9 -7 9 8 1 20 -4 27 -11z m6569 -20 c-3 -7 -5 -2 -5 12 0 14 2 19 5
13 2 -7 2 -19 0 -25z m241 -33 c0 -16 -2 -15 -8 5 -11 34 -11 60 0 35 5 -11 8
-29 8 -40z m-181 23 c-3 -8 -6 -5 -6 6 -1 11 2 17 5 13 3 -3 4 -12 1 -19z
m-237 -52 c0 -12 -5 -7 -19 24 -11 24 -11 24 3 6 9 -11 16 -24 16 -30z m167
22 c-3 -8 -6 -5 -6 6 -1 11 2 17 5 13 3 -3 4 -12 1 -19z m-6707 1 c0 -7 -14
-10 -35 -7 -19 2 -35 0 -35 -5 0 -5 -11 -7 -25 -5 -13 3 -26 1 -27 -4 -2 -5
-24 -10 -51 -11 -26 -1 -47 -5 -47 -9 0 -11 -38 -10 -44 1 -6 10 71 24 85 16
5 -4 9 -2 9 3 0 10 84 29 138 31 17 0 32 -4 32 -10z m30 -14 c0 -15 -11 -37
-27 -51 -43 -40 -260 -167 -273 -159 -6 3 -9 1 -8 -7 2 -7 -5 -12 -14 -12 -10
1 -16 -2 -13 -6 2 -4 -25 -27 -61 -50 -37 -24 -93 -65 -125 -92 -34 -28 -64
-46 -71 -42 -6 4 -8 3 -5 -3 8 -13 -97 -105 -108 -95 -3 4 -5 2 -3 -3 3 -12
-69 -81 -233 -222 -81 -70 -240 -232 -266 -272 -2 -2 -5 -2 -8 1 -3 2 64 76
147 162 84 87 155 162 156 167 2 5 8 9 13 9 6 0 7 -5 3 -12 -4 -7 -3 -8 4 -4
6 4 9 12 7 19 -2 7 67 73 153 148 239 208 279 237 514 378 157 94 198 125 198
152 0 10 5 19 10 19 6 0 10 -11 10 -25z m6737 3 c-3 -8 -6 -5 -6 6 -1 11 2 17
5 13 3 -3 4 -12 1 -19z m-158 -28 c0 -10 -3 -8 -9 5 -12 27 -12 43 0 25 5 -8
9 -22 9 -30z m288 18 c-3 -8 -6 -5 -6 6 -1 11 2 17 5 13 3 -3 4 -12 1 -19z
m-203 -32 c-3 -15 -8 -25 -11 -23 -2 3 -1 17 3 31 3 15 8 25 11 23 2 -3 1 -17
-3 -31z m273 12 c-3 -8 -6 -5 -6 6 -1 11 2 17 5 13 3 -3 4 -12 1 -19z m-217
-33 c-7 -20 -14 -35 -16 -33 -2 2 2 21 8 41 6 20 13 35 16 33 2 -3 -1 -21 -8
-41z m-7025 25 c4 -6 -6 -10 -24 -10 -16 0 -33 5 -36 10 -4 6 6 10 24 10 16 0
33 -4 36 -10z m6835 -25 c0 -5 -5 -3 -10 5 -5 8 -10 20 -10 25 0 6 5 3 10 -5
5 -8 10 -19 10 -25z m347 3 c-3 -7 -5 -2 -5 12 0 14 2 19 5 13 2 -7 2 -19 0
-25z m-261 -21 c21 -4 21 -4 -3 -3 -17 1 -28 7 -29 16 0 8 1 10 3 3 2 -6 15
-14 29 -16z m331 1 c-3 -7 -5 -2 -5 12 0 14 2 19 5 13 2 -7 2 -19 0 -25z
m-398 -48 c0 -9 -4 -8 -9 5 -5 11 -9 27 -9 35 0 9 4 8 9 -5 5 -11 9 -27 9 -35z
m338 13 c-3 -10 -5 -4 -5 12 0 17 2 24 5 18 2 -7 2 -21 0 -30z m-196 -20 c-12
-20 -14 -14 -5 12 4 9 9 14 11 11 3 -2 0 -13 -6 -23z m266 -10 c-3 -10 -5 -4
-5 12 0 17 2 24 5 18 2 -7 2 -21 0 -30z m-60 -40 c-3 -10 -5 -2 -5 17 0 19 2
27 5 18 2 -10 2 -26 0 -35z m-340 15 c-3 -8 -6 -5 -6 6 -1 11 2 17 5 13 3 -3
4 -12 1 -19z m96 -52 c-15 -31 -30 -56 -34 -56 -3 0 8 27 25 59 39 75 46 73 9
-3z m314 17 c-3 -10 -5 -4 -5 12 0 17 2 24 5 18 2 -7 2 -21 0 -30z m-7112 8
c-16 -14 -105 -63 -105 -58 0 5 101 66 110 67 2 0 0 -4 -5 -9z m6712 -23 c-3
-7 -5 -2 -5 12 0 14 2 19 5 13 2 -7 2 -19 0 -25z m340 -35 c-3 -10 -5 -2 -5
17 0 19 2 27 5 18 2 -10 2 -26 0 -35z m-323 2 c3 -8 1 -15 -4 -15 -6 0 -10 7
-10 15 0 8 2 15 4 15 2 0 6 -7 10 -15z m393 -37 c-2 -13 -4 -5 -4 17 -1 22 1
32 4 23 2 -10 2 -28 0 -40z m-7238 28 c-2 -2 -44 -31 -94 -64 -49 -33 -138
-101 -197 -152 -60 -50 -108 -89 -108 -86 0 20 371 306 397 306 4 0 4 -2 2 -4z
m7178 -98 c-2 -13 -4 -3 -4 22 0 25 2 35 4 23 2 -13 2 -33 0 -45z m70 -60 c-2
-18 -4 -4 -4 32 0 36 2 50 4 33 2 -18 2 -48 0 -65z m-60 -110 c-3 -8 -6 -5 -6
6 -1 11 2 17 5 13 3 -3 4 -12 1 -19z m0 -85 c-2 -16 -4 -5 -4 22 0 28 2 40 4
28 2 -13 2 -35 0 -50z m-7633 5 c-95 -81 -257 -234 -348 -327 -54 -56 -100
-100 -102 -98 -9 9 475 471 485 462 2 -2 -14 -19 -35 -37z m7693 -125 c-3 -10
-5 -2 -5 17 0 19 2 27 5 18 2 -10 2 -26 0 -35z m-70 -25 c-2 -13 -4 -5 -4 17
-1 22 1 32 4 23 2 -10 2 -28 0 -40z m60 -30 c-3 -7 -5 -2 -5 12 0 14 2 19 5
13 2 -7 2 -19 0 -25z m-70 -30 c-3 -7 -5 -2 -5 12 0 14 2 19 5 13 2 -7 2 -19
0 -25z m58 -28 c-4 -17 -9 -30 -11 -27 -2 2 -1 18 2 36 4 17 9 30 11 27 3 -2
2 -19 -2 -36z m-71 -24 c-3 -15 -8 -25 -11 -23 -2 3 -1 17 3 31 3 15 8 25 11
23 2 -3 1 -17 -3 -31z m46 -61 c-7 -20 -14 -35 -16 -33 -2 2 2 21 8 41 6 20
13 35 16 33 2 -3 -1 -21 -8 -41z m-70 -12 c-11 -17 -11 -17 -6 0 3 10 6 24 7
30 0 9 2 9 5 0 3 -7 0 -20 -6 -30z m-51 -112 l-43 -81 -130 2 -131 2 130 6
129 5 41 77 c22 42 42 75 44 73 1 -2 -16 -40 -40 -84z m92 52 c-12 -20 -14
-14 -5 12 4 9 9 14 11 11 3 -2 0 -13 -6 -23z m-8213 -118 c-44 -52 -83 -95
-86 -95 -5 0 79 101 127 153 61 64 44 41 -41 -58z m8202 87 c0 -5 -7 -17 -15
-28 -14 -18 -14 -17 -4 9 12 27 19 34 19 19z m-8131 -94 c-39 -46 -101 -121
-137 -168 -75 -98 -110 -136 -64 -70 48 68 256 319 265 320 4 0 -25 -37 -64
-82z m8098 20 c-3 -8 -6 -5 -6 6 -1 11 2 17 5 13 3 -3 4 -12 1 -19z m-10 -50
c-3 -7 -5 -2 -5 12 0 14 2 19 5 13 2 -7 2 -19 0 -25z m-369 15 c-10 -2 -26 -2
-35 0 -10 3 -2 5 17 5 19 0 27 -2 18 -5z m-80 -10 c-10 -2 -26 -2 -35 0 -10 3
-2 5 17 5 19 0 27 -2 18 -5z m-70 -10 c-10 -2 -26 -2 -35 0 -10 3 -2 5 17 5
19 0 27 -2 18 -5z m-65 -10 c-7 -2 -21 -2 -30 0 -10 3 -4 5 12 5 17 0 24 -2
18 -5z m-745 -10 c-10 -2 -26 -2 -35 0 -10 3 -2 5 17 5 19 0 27 -2 18 -5z
m685 0 c-7 -2 -21 -2 -30 0 -10 3 -4 5 12 5 17 0 24 -2 18 -5z m626 -29 c-10
-26 -7 -38 30 -113 23 -46 41 -85 39 -87 -2 -2 -24 36 -48 85 -40 83 -42 91
-30 120 16 40 24 35 9 -5z m-1384 16 c-11 -5 -27 -9 -35 -9 -9 0 -8 4 5 9 11
5 27 9 35 9 9 0 8 -4 -5 -9z m102 -12 c-3 -8 -6 -5 -6 6 -1 11 2 17 5 13 3 -3
4 -12 1 -19z m596 15 c-7 -2 -21 -2 -30 0 -10 3 -4 5 12 5 17 0 24 -2 18 -5z
m504 0 c-20 -2 -52 -2 -70 0 -17 2 0 4 38 4 39 0 53 -2 32 -4z m-564 -10 c-7
-2 -19 -2 -25 0 -7 3 -2 5 12 5 14 0 19 -2 13 -5z m425 0 c-10 -2 -28 -2 -40
0 -13 2 -5 4 17 4 22 1 32 -1 23 -4z m237 -19 c9 -14 14 -28 11 -32 -3 -3 -6
-1 -6 4 0 6 -9 20 -20 32 -12 12 -17 22 -12 22 6 0 17 -12 27 -26z m-722 9
c-7 -2 -19 -2 -25 0 -7 3 -2 5 12 5 14 0 19 -2 13 -5z m410 0 c-7 -2 -21 -2
-30 0 -10 3 -4 5 12 5 17 0 24 -2 18 -5z m-1088 -13 c-11 -5 -27 -9 -35 -9 -9
0 -8 4 5 9 11 5 27 9 35 9 9 0 8 -4 -5 -9z m628 3 c-7 -2 -21 -2 -30 0 -10 3
-4 5 12 5 17 0 24 -2 18 -5z m390 0 c-7 -2 -21 -2 -30 0 -10 3 -4 5 12 5 17 0
24 -2 18 -5z m-7786 -35 c-55 -69 -180 -250 -236 -343 -64 -105 -92 -141 -46
-60 70 125 286 435 302 435 3 0 -6 -15 -20 -32z m6954 5 c-12 -20 -14 -14 -5
12 4 9 9 14 11 11 3 -2 0 -13 -6 -23z m382 20 c-7 -2 -21 -2 -30 0 -10 3 -4 5
12 5 17 0 24 -2 18 -5z m385 0 c-10 -2 -26 -2 -35 0 -10 3 -2 5 17 5 19 0 27
-2 18 -5z m-1023 -13 c-11 -5 -27 -9 -35 -9 -9 0 -8 4 5 9 11 5 27 9 35 9 9 0
8 -4 -5 -9z m573 3 c-10 -2 -26 -2 -35 0 -10 3 -2 5 17 5 19 0 27 -2 18 -5z
m385 0 c-7 -2 -21 -2 -30 0 -10 3 -4 5 12 5 17 0 24 -2 18 -5z m-455 -10 c-10
-2 -26 -2 -35 0 -10 3 -2 5 17 5 19 0 27 -2 18 -5z m395 0 c-7 -2 -21 -2 -30
0 -10 3 -4 5 12 5 17 0 24 -2 18 -5z m-968 -13 c-11 -5 -27 -9 -35 -9 -9 0 -8
4 5 9 11 5 27 9 35 9 9 0 8 -4 -5 -9z m512 4 c-3 -3 -12 -4 -19 -1 -8 3 -5 6
6 6 11 1 17 -2 13 -5z m396 -1 c-7 -2 -21 -2 -30 0 -10 3 -4 5 12 5 17 0 24
-2 18 -5z m-689 -9 c9 -3 16 -16 15 -28 0 -14 -2 -16 -6 -6 -3 8 -12 21 -21
28 -17 13 -13 15 12 6z m246 -4 c-8 -5 -19 -10 -25 -10 -5 0 -3 5 5 10 8 5 20
10 25 10 6 0 3 -5 -5 -10z m383 3 c-7 -2 -21 -2 -30 0 -10 3 -4 5 12 5 17 0
24 -2 18 -5z m756 -88 c0 -5 -11 10 -24 35 -13 25 -24 50 -24 55 0 6 11 -10
24 -35 13 -25 24 -49 24 -55z m-1439 75 c-34 -11 -60 -11 -35 0 11 5 29 8 40
8 16 0 15 -2 -5 -8z m147 -12 c-3 -8 -6 -5 -6 6 -1 11 2 17 5 13 3 -3 4 -12 1
-19z m476 15 c-7 -2 -19 -2 -25 0 -7 3 -2 5 12 5 14 0 19 -2 13 -5z m-888 -13
c-11 -5 -27 -9 -35 -9 -9 0 -8 4 5 9 11 5 27 9 35 9 9 0 8 -4 -5 -9z m475 -20
c-61 -32 -70 -35 -70 -19 0 5 3 8 8 6 4 -3 27 6 52 19 25 12 50 23 55 23 6 0
-15 -13 -45 -29z m353 23 c-7 -2 -19 -2 -25 0 -7 3 -2 5 12 5 14 0 19 -2 13
-5z m-626 -9 c-3 -3 -12 -4 -19 -1 -8 3 -5 6 6 6 11 1 17 -2 13 -5z m576 -1
c-7 -2 -21 -2 -30 0 -10 3 -4 5 12 5 17 0 24 -2 18 -5z m-70 -10 c-7 -2 -21
-2 -30 0 -10 3 -4 5 12 5 17 0 24 -2 18 -5z m-808 -13 c-11 -5 -27 -9 -35 -9
-9 0 -8 4 5 9 11 5 27 9 35 9 9 0 8 -4 -5 -9z m220 0 c-11 -5 -27 -9 -35 -9
-9 0 -8 4 5 9 11 5 27 9 35 9 9 0 8 -4 -5 -9z m528 3 c-7 -2 -19 -2 -25 0 -7
3 -2 5 12 5 14 0 19 -2 13 -5z m-334 -42 c-6 -18 -13 -30 -15 -28 -2 2 1 18 7
36 6 18 13 30 15 28 2 -2 -1 -18 -7 -36z m-294 9 c-27 -10 -57 -18 -65 -18 -8
0 8 8 35 18 28 10 57 18 65 18 8 0 -7 -8 -35 -18z m554 16 c-10 -9 -89 -46
-89 -41 0 6 72 44 84 45 5 0 7 -2 5 -4z m-774 -16 c-27 -12 -43 -12 -25 0 8 5
22 9 30 9 10 0 8 -3 -5 -9z m-1207 -45 c-3 -3 -9 2 -12 12 -6 14 -5 15 5 6 7
-7 10 -15 7 -18z m-83 0 c-16 -8 -37 -14 -45 -14 -8 0 1 7 20 14 46 18 64 17
25 0z m1960 7 c-18 -15 -85 -54 -85 -48 0 3 19 16 43 30 43 26 59 33 42 18z
m-815 -12 c-8 -5 -22 -9 -30 -9 -10 0 -8 3 5 9 27 12 43 12 25 0z m205 0 c-11
-5 -27 -9 -35 -9 -9 0 -8 4 5 9 11 5 27 9 35 9 9 0 8 -4 -5 -9z m1894 -65 c0
-5 -8 6 -19 25 -11 19 -19 40 -19 45 0 6 8 -6 19 -25 11 -19 19 -39 19 -45z
m-1462 43 c-3 -8 -6 -5 -6 6 -1 11 2 17 5 13 3 -3 4 -12 1 -19z m-6928 -80
c-57 -86 -94 -135 -74 -98 19 34 126 190 131 190 2 0 -23 -42 -57 -92z m5071
83 c-8 -5 -26 -11 -40 -15 -21 -5 -20 -3 5 9 32 15 60 20 35 6z m1160 0 c-8
-5 -26 -11 -40 -15 -21 -5 -20 -3 5 9 32 15 60 20 35 6z m-1044 -95 c-26 -48
-49 -86 -52 -86 -2 0 17 40 43 89 26 49 50 88 52 86 2 -2 -18 -42 -43 -89z
m1209 84 c-27 -12 -43 -12 -25 0 8 5 22 9 30 9 10 0 8 -3 -5 -9z m2064 -45 c0
-5 -6 1 -14 15 -8 14 -14 30 -14 35 0 6 6 -1 14 -15 8 -14 14 -29 14 -35z
m-2309 25 c-8 -5 -19 -10 -25 -10 -5 0 -3 5 5 10 8 5 20 10 25 10 6 0 3 -5 -5
-10z m183 -2 c-12 -6 -29 -27 -37 -47 -8 -20 -15 -30 -15 -23 -1 19 27 69 41
75 24 10 33 6 11 -5z m672 2 c-3 -5 -12 -10 -18 -10 -7 0 -6 4 3 10 19 12 23
12 15 0z m-2035 -4 c0 -6 -123 -47 -127 -42 -2 2 22 13 54 24 62 22 73 24 73
18z m1130 -16 c-8 -5 -19 -10 -25 -10 -5 0 -3 5 5 10 8 5 20 10 25 10 6 0 3
-5 -5 -10z m863 3 c-7 -2 -21 -2 -30 0 -10 3 -4 5 12 5 17 0 24 -2 18 -5z
m-1843 -20 c0 -10 -4 -14 -8 -8 -4 6 -11 13 -16 18 -5 4 -2 7 7 7 10 0 17 -8
17 -17z m-55 -3 c-27 -12 -43 -12 -25 0 8 5 22 9 30 9 10 0 8 -3 -5 -9z m985
0 c-8 -5 -19 -10 -25 -10 -5 0 -3 5 5 10 8 5 20 10 25 10 6 0 3 -5 -5 -10z
m2369 -45 c0 -5 -6 1 -14 15 -8 14 -14 30 -14 35 0 6 6 -1 14 -15 8 -14 14
-29 14 -35z m70 -10 c0 -5 -6 1 -14 15 -8 14 -14 30 -14 35 0 6 6 -1 14 -15 8
-14 14 -29 14 -35z m-2509 25 c-19 -11 -39 -19 -45 -19 -5 0 6 8 25 19 19 11
40 19 45 19 6 0 -6 -8 -25 -19z m217 14 c-3 -3 -12 -4 -19 -1 -8 3 -5 6 6 6
11 1 17 -2 13 -5z m-1407 -14 c-8 -5 -22 -9 -30 -9 -10 0 -8 3 5 9 27 12 43
12 25 0z m281 -70 c-23 -38 -44 -70 -47 -70 -3 0 7 19 21 43 14 23 33 57 42
74 9 18 19 31 21 28 3 -2 -14 -36 -37 -75z m-121 60 c-8 -5 -19 -10 -25 -10
-5 0 -3 5 5 10 8 5 20 10 25 10 6 0 3 -5 -5 -10z m1170 0 c-8 -5 -19 -10 -25
-10 -5 0 -3 5 5 10 8 5 20 10 25 10 6 0 3 -5 -5 -10z m79 -69 c-12 -34 -23
-60 -25 -58 -2 2 6 32 17 66 12 34 23 60 25 58 2 -2 -6 -32 -17 -66z m-1499
49 c-8 -5 -22 -9 -30 -9 -10 0 -8 3 5 9 27 12 43 12 25 0z m1180 -15 c-25 -13
-49 -24 -55 -24 -5 0 10 11 35 24 25 13 50 24 55 24 6 0 -10 -11 -35 -24z
m180 10 c-14 -8 -29 -14 -35 -14 -5 0 1 6 15 14 14 8 30 14 35 14 6 0 -1 -6
-15 -14z m214 -19 c-3 -15 -8 -25 -11 -23 -2 3 -1 17 3 31 3 15 8 25 11 23 2
-3 1 -17 -3 -31z m2166 -11 c0 -5 -5 -3 -10 5 -5 8 -10 20 -10 25 0 6 5 3 10
-5 5 -8 10 -19 10 -25z m-3600 15 c-8 -5 -22 -9 -30 -9 -10 0 -8 3 5 9 27 12
43 12 25 0z m3670 -25 c0 -5 -5 -3 -10 5 -5 8 -10 20 -10 25 0 6 5 3 10 -5 5
-8 10 -19 10 -25z m-2520 10 c-14 -8 -29 -14 -35 -14 -5 0 1 6 15 14 14 8 30
14 35 14 6 0 -1 -6 -15 -14z m-1240 -15 c-8 -5 -22 -9 -30 -9 -10 0 -8 3 5 9
27 12 43 12 25 0z m1030 -10 c-19 -11 -39 -19 -45 -19 -5 0 6 8 25 19 19 11
40 19 45 19 6 0 -6 -8 -25 -19z m130 -10 c-19 -11 -39 -19 -45 -19 -5 0 6 8
25 19 19 11 40 19 45 19 6 0 -6 -8 -25 -19z m2550 -15 c0 -5 -5 -3 -10 5 -5 8
-10 20 -10 25 0 6 5 3 10 -5 5 -8 10 -19 10 -25z m-3975 15 c-11 -5 -27 -9
-35 -9 -9 0 -8 4 5 9 11 5 27 9 35 9 9 0 8 -4 -5 -9z m190 -5 c-16 -8 -37 -14
-45 -14 -8 0 1 7 20 14 46 18 64 17 25 0z m437 -17 c-11 -18 -59 -100 -106
-183 -47 -82 -86 -146 -86 -141 0 15 197 356 206 356 3 0 -3 -15 -14 -32z
m1139 1 c-5 -13 -10 -19 -10 -12 -1 15 10 45 15 40 3 -2 0 -15 -5 -28z m2293
-49 c5 -20 3 -19 -8 5 -7 17 -16 41 -20 55 -5 20 -3 19 8 -5 7 -16 16 -41 20
-55z m-8702 -79 c-43 -82 -78 -148 -80 -146 -6 6 144 295 153 295 2 0 -31 -67
-73 -149z m5838 114 c-25 -13 -49 -24 -55 -24 -5 0 10 11 35 24 25 13 50 24
55 24 6 0 -10 -11 -35 -24z m-1295 5 c-11 -5 -27 -9 -35 -9 -9 0 -8 4 5 9 11
5 27 9 35 9 9 0 8 -4 -5 -9z m1425 -15 c-25 -13 -49 -24 -55 -24 -5 0 10 11
35 24 25 13 50 24 55 24 6 0 -10 -11 -35 -24z m-1294 -11 c-39 -13 -75 -24
-80 -23 -15 1 116 47 134 47 8 0 -16 -10 -54 -24z m3973 -36 c12 -34 21 -67
20 -72 0 -6 -8 12 -18 39 -27 76 -33 95 -28 95 3 0 15 -28 26 -62z m-4204 32
c-11 -5 -27 -9 -35 -9 -9 0 -8 4 5 9 11 5 27 9 35 9 9 0 8 -4 -5 -9z m1869
-54 c-10 -31 -19 -54 -22 -52 -2 2 4 29 14 60 10 31 19 54 22 52 2 -2 -4 -29
-14 -60z m-549 44 c-3 -5 -12 -10 -18 -10 -7 0 -6 4 3 10 19 12 23 12 15 0z
m-1378 -6 c-3 -3 -12 -4 -19 -1 -8 3 -5 6 6 6 11 1 17 -2 13 -5z m773 -14 c-6
-11 -13 -20 -16 -20 -2 0 0 9 6 20 6 11 13 20 16 20 2 0 0 -9 -6 -20z m740 16
c0 -2 -7 -7 -16 -10 -8 -3 -12 -2 -9 4 6 10 25 14 25 6z m-1553 -12 c-3 -3
-12 -4 -19 -1 -8 3 -5 6 6 6 11 1 17 -2 13 -5z m218 -4 c-11 -5 -27 -9 -35 -9
-9 0 -8 4 5 9 11 5 27 9 35 9 9 0 8 -4 -5 -9z m1085 -35 c-47 -24 -89 -44 -95
-44 -5 0 28 20 75 44 47 24 90 44 95 44 6 0 -28 -20 -75 -44z m-5737 -60 c-26
-52 -49 -93 -51 -91 -4 5 86 186 93 186 3 0 -16 -43 -42 -95z m5907 70 c-25
-13 -49 -24 -55 -24 -5 0 10 11 35 24 25 13 50 24 55 24 6 0 -10 -11 -35 -24z
m-1543 9 c-3 -3 -12 -4 -19 -1 -8 3 -5 6 6 6 11 1 17 -2 13 -5z m-40 -10 c-3
-3 -12 -4 -19 -1 -8 3 -5 6 6 6 11 1 17 -2 13 -5z m240 0 c-3 -3 -12 -4 -19
-1 -8 3 -5 6 6 6 11 1 17 -2 13 -5z m1894 -25 c-5 -13 -10 -19 -10 -12 -1 15
10 45 15 40 3 -2 0 -15 -5 -28z m-2174 15 c-3 -3 -12 -4 -19 -1 -8 3 -5 6 6 6
11 1 17 -2 13 -5z m228 -4 c-11 -5 -27 -9 -35 -9 -9 0 -8 4 5 9 11 5 27 9 35
9 9 0 8 -4 -5 -9z m695 -30 c-11 -22 -23 -40 -25 -40 -3 0 4 18 15 40 11 22
23 40 25 40 3 0 -4 -18 -15 -40z m-963 24 c-3 -3 -12 -4 -19 -1 -8 3 -5 6 6 6
11 1 17 -2 13 -5z m-40 -10 c-3 -3 -12 -4 -19 -1 -8 3 -5 6 6 6 11 1 17 -2 13
-5z m250 0 c-3 -3 -12 -4 -19 -1 -8 3 -5 6 6 6 11 1 17 -2 13 -5z m1378 -4
c-3 -5 -12 -10 -18 -10 -7 0 -6 4 3 10 19 12 23 12 15 0z m-1668 -6 c-3 -3
-12 -4 -19 -1 -8 3 -5 6 6 6 11 1 17 -2 13 -5z m238 -4 c-11 -5 -27 -9 -35 -9
-9 0 -8 4 5 9 11 5 27 9 35 9 9 0 8 -4 -5 -9z m-278 -6 c-3 -3 -12 -4 -19 -1
-8 3 -5 6 6 6 11 1 17 -2 13 -5z m-40 -10 c-3 -3 -12 -4 -19 -1 -8 3 -5 6 6 6
11 1 17 -2 13 -5z m260 0 c-3 -3 -12 -4 -19 -1 -8 3 -5 6 6 6 11 1 17 -2 13
-5z m1383 -24 c-30 -16 -59 -29 -65 -29 -5 0 15 13 45 29 30 16 60 29 65 29 6
0 -15 -13 -45 -29z m-1683 14 c-3 -3 -12 -4 -19 -1 -8 3 -5 6 6 6 11 1 17 -2
13 -5z m260 0 c-3 -3 -12 -4 -19 -1 -8 3 -5 6 6 6 11 1 17 -2 13 -5z m1253
-24 c-30 -16 -59 -29 -65 -29 -5 0 15 13 45 29 30 16 60 29 65 29 6 0 -15 -13
-45 -29z m-1553 14 c-3 -3 -12 -4 -19 -1 -8 3 -5 6 6 6 11 1 17 -2 13 -5z
m260 0 c-3 -3 -12 -4 -19 -1 -8 3 -5 6 6 6 11 1 17 -2 13 -5z m-300 -10 c-3
-3 -12 -4 -19 -1 -8 3 -5 6 6 6 11 1 17 -2 13 -5z m260 0 c-3 -3 -12 -4 -19
-1 -8 3 -5 6 6 6 11 1 17 -2 13 -5z m-317 -14 c-14 -4 -34 -8 -45 -8 -16 0
-15 2 5 8 14 4 34 8 45 8 16 0 15 -2 -5 -8z m265 0 c-11 -5 -29 -8 -40 -8 -16
0 -15 2 5 8 34 11 60 11 35 0z m995 -10 c-6 -11 -13 -20 -16 -20 -2 0 0 9 6
20 6 11 13 20 16 20 2 0 0 -9 -6 -20z m1194 -14 c-3 -15 -8 -25 -11 -23 -2 3
-1 17 3 31 3 15 8 25 11 23 2 -3 1 -17 -3 -31z m2413 12 c-3 -8 -6 -5 -6 6 -1
11 2 17 5 13 3 -3 4 -12 1 -19z m-6207 7 c0 -7 -90 -51 -120 -59 -14 -4 7 9
45 28 82 40 75 37 75 31z m48 -27 c2 -20 -9 -37 -56 -79 -63 -58 -221 -249
-247 -298 -8 -17 -18 -31 -21 -31 -25 0 178 258 262 333 52 47 70 87 44 100
-6 3 -5 4 2 3 7 -1 14 -14 16 -28z m6229 10 c-3 -8 -6 -5 -6 6 -1 11 2 17 5
13 3 -3 4 -12 1 -19z m-5010 6 c-3 -3 -12 -4 -19 -1 -8 3 -5 6 6 6 11 1 17 -2
13 -5z m270 0 c-3 -3 -12 -4 -19 -1 -8 3 -5 6 6 6 11 1 17 -2 13 -5z m1539 -3
c-6 -9 -46 -22 -46 -15 0 3 10 9 23 14 29 11 29 11 23 1z m778 -25 c-3 -15 -8
-25 -11 -23 -2 3 -1 17 3 31 3 15 8 25 11 23 2 -3 1 -17 -3 -31z m-2627 18
c-3 -3 -12 -4 -19 -1 -8 3 -5 6 6 6 11 1 17 -2 13 -5z m270 0 c-3 -3 -12 -4
-19 -1 -8 3 -5 6 6 6 11 1 17 -2 13 -5z m1413 2 c0 -2 -7 -7 -16 -10 -8 -3
-12 -2 -9 4 6 10 25 14 25 6z m-1740 -16 c-14 -4 -34 -8 -45 -8 -16 0 -15 2 5
8 14 4 34 8 45 8 16 0 15 -2 -5 -8z m270 0 c-14 -4 -34 -8 -45 -8 -16 0 -15 2
5 8 14 4 34 8 45 8 16 0 15 -2 -5 -8z m4777 -12 c-3 -8 -6 -5 -6 6 -1 11 2 17
5 13 3 -3 4 -12 1 -19z m-3648 -10 c-26 -51 -92 -158 -96 -158 -3 0 5 17 17
38 12 20 36 61 52 90 29 51 50 74 27 30z m251 -8 c-30 -16 -59 -29 -65 -29 -5
0 15 13 45 29 30 16 60 29 65 29 6 0 -15 -13 -45 -29z m150 0 c-30 -16 -59
-29 -65 -29 -5 0 15 13 45 29 30 16 60 29 65 29 6 0 -15 -13 -45 -29z m3317 8
c-3 -8 -6 -5 -6 6 -1 11 2 17 5 13 3 -3 4 -12 1 -19z m-5190 6 c-3 -3 -12 -4
-19 -1 -8 3 -5 6 6 6 11 1 17 -2 13 -5z m270 0 c-3 -3 -12 -4 -19 -1 -8 3 -5
6 6 6 11 1 17 -2 13 -5z m-310 -10 c-3 -3 -12 -4 -19 -1 -8 3 -5 6 6 6 11 1
17 -2 13 -5z m270 0 c-3 -3 -12 -4 -19 -1 -8 3 -5 6 6 6 11 1 17 -2 13 -5z
m-3956 -31 c-12 -20 -14 -14 -5 12 4 9 9 14 11 11 3 -2 0 -13 -6 -23z m3646
21 c-3 -3 -12 -4 -19 -1 -8 3 -5 6 6 6 11 1 17 -2 13 -5z m270 0 c-3 -3 -12
-4 -19 -1 -8 3 -5 6 6 6 11 1 17 -2 13 -5z m4940 -26 c-3 -7 -5 -2 -5 12 0 14
2 19 5 13 2 -7 2 -19 0 -25z m-5250 16 c-3 -3 -12 -4 -19 -1 -8 3 -5 6 6 6 11
1 17 -2 13 -5z m270 0 c-3 -3 -12 -4 -19 -1 -8 3 -5 6 6 6 11 1 17 -2 13 -5z
m2587 -28 c-3 -15 -8 -25 -11 -23 -2 3 -1 17 3 31 3 15 8 25 11 23 2 -3 1 -17
-3 -31z m2463 -13 c-3 -10 -5 -2 -5 17 0 19 2 27 5 18 2 -10 2 -26 0 -35z
m-8871 0 c-8 -15 -15 -25 -16 -21 0 12 23 58 27 54 3 -2 -2 -17 -11 -33z
m2363 33 c-8 -8 -113 -45 -117 -42 -2 2 21 13 50 25 51 19 76 26 67 17z m1131
-6 c-34 -11 -60 -11 -35 0 11 5 29 8 40 8 16 0 15 -2 -5 -8z m287 4 c-3 -3
-12 -4 -19 -1 -8 3 -5 6 6 6 11 1 17 -2 13 -5z m2560 -16 c-3 -8 -6 -5 -6 6
-1 11 2 17 5 13 3 -3 4 -12 1 -19z m-2604 5 c-7 -2 -19 -2 -25 0 -7 3 -2 5 12
5 14 0 19 -2 13 -5z m1687 -18 c-25 -13 -49 -24 -55 -24 -5 0 10 11 35 24 25
13 50 24 55 24 6 0 -10 -11 -35 -24z m-1993 9 c-3 -3 -12 -4 -19 -1 -8 3 -5 6
6 6 11 1 17 -2 13 -5z m260 0 c-3 -3 -12 -4 -19 -1 -8 3 -5 6 6 6 11 1 17 -2
13 -5z m1593 -4 c-8 -5 -19 -10 -25 -10 -5 0 -3 5 5 10 8 5 20 10 25 10 6 0 3
-5 -5 -10z m-5359 -27 c-12 -20 -14 -14 -5 12 4 9 9 14 11 11 3 -2 0 -13 -6
-23z m3466 21 c-3 -3 -12 -4 -19 -1 -8 3 -5 6 6 6 11 1 17 -2 13 -5z m260 0
c-3 -3 -12 -4 -19 -1 -8 3 -5 6 6 6 11 1 17 -2 13 -5z m5160 -31 c-3 -10 -5
-4 -5 12 0 17 2 24 5 18 2 -7 2 -21 0 -30z m-5477 17 c-34 -11 -60 -11 -35 0
11 5 29 8 40 8 16 0 15 -2 -5 -8z m273 3 c-7 -2 -19 -2 -25 0 -7 3 -2 5 12 5
14 0 19 -2 13 -5z m2721 -32 c-4 -17 -9 -30 -11 -27 -3 2 -2 19 2 36 4 17 9
30 11 27 2 -2 1 -18 -2 -36z m-4114 14 c-14 -8 -29 -14 -35 -14 -5 0 1 6 15
14 14 8 30 14 35 14 6 0 -1 -6 -15 -14z m1347 9 c-3 -3 -12 -4 -19 -1 -8 3 -5
6 6 6 11 1 17 -2 13 -5z m1663 1 c0 -2 -13 -8 -30 -14 -22 -7 -30 -7 -30 2 0
7 14 12 30 13 17 1 30 0 30 -1z m-2800 -14 c0 -5 -25 -40 -56 -78 -31 -37 -88
-115 -127 -173 -64 -96 -103 -149 -82 -110 27 49 151 225 200 285 l58 70 -29
6 -29 7 33 1 c17 0 32 -3 32 -8z m835 -1 c-11 -5 -27 -9 -35 -9 -9 0 -8 4 5 9
11 5 27 9 35 9 9 0 8 -4 -5 -9z m262 4 c-3 -3 -12 -4 -19 -1 -8 3 -5 6 6 6 11
1 17 -2 13 -5z m1743 -44 c-52 -27 -99 -49 -105 -49 -5 0 33 22 85 49 52 27
100 49 105 49 6 0 -33 -22 -85 -49z m1127 28 c-3 -8 -6 -5 -6 6 -1 11 2 17 5
13 3 -3 4 -12 1 -19z m2490 -30 c-2 -13 -4 -5 -4 17 -1 22 1 32 4 23 2 -10 2
-28 0 -40z m-5400 36 c-3 -3 -12 -4 -19 -1 -8 3 -5 6 6 6 11 1 17 -2 13 -5z
m-1357 -29 c-25 -13 -49 -24 -55 -24 -5 0 10 11 35 24 25 13 50 24 55 24 6 0
-10 -11 -35 -24z m190 15 c-8 -5 -19 -10 -25 -10 -5 0 -3 5 5 10 8 5 20 10 25
10 6 0 3 -5 -5 -10z m887 4 c-3 -3 -12 -4 -19 -1 -8 3 -5 6 6 6 11 1 17 -2 13
-5z m228 -4 c-11 -5 -27 -9 -35 -9 -9 0 -8 4 5 9 11 5 27 9 35 9 9 0 8 -4 -5
-9z m5392 -52 c-2 -13 -4 -5 -4 17 -1 22 1 32 4 23 2 -10 2 -28 0 -40z m-8858
3 c-6 -18 -13 -30 -15 -28 -2 2 1 18 7 36 6 18 13 30 15 28 2 -2 -1 -18 -7
-36z m2291 24 c-14 -8 -29 -14 -35 -14 -5 0 1 6 15 14 14 8 30 14 35 14 6 0
-1 -6 -15 -14z m877 9 c-3 -3 -12 -4 -19 -1 -8 3 -5 6 6 6 11 1 17 -2 13 -5z
m240 0 c-3 -3 -12 -4 -19 -1 -8 3 -5 6 6 6 11 1 17 -2 13 -5z m3010 -16 c-3
-8 -6 -5 -6 6 -1 11 2 17 5 13 3 -3 4 -12 1 -19z m-6486 -19 c-5 -13 -10 -19
-10 -12 -1 15 10 45 15 40 3 -2 0 -15 -5 -28z m3436 25 c-3 -3 -12 -4 -19 -1
-8 3 -5 6 6 6 11 1 17 -2 13 -5z m-282 -14 c-11 -5 -27 -9 -35 -9 -9 0 -8 4 5
9 11 5 27 9 35 9 9 0 8 -4 -5 -9z m3262 -12 c-3 -8 -6 -5 -6 6 -1 11 2 17 5
13 3 -3 4 -12 1 -19z m-4257 8 c0 -2 -7 -7 -16 -10 -8 -3 -12 -2 -9 4 6 10 25
14 25 6z m120 -16 c-19 -11 -39 -19 -45 -19 -5 0 6 8 25 19 19 11 40 19 45 19
6 0 -6 -8 -25 -19z m1087 14 c-3 -3 -12 -4 -19 -1 -8 3 -5 6 6 6 11 1 17 -2
13 -5z m-282 -14 c-11 -5 -27 -9 -35 -9 -9 0 -8 4 5 9 11 5 27 9 35 9 9 0 8
-4 -5 -9z m242 4 c-3 -3 -12 -4 -19 -1 -8 3 -5 6 6 6 11 1 17 -2 13 -5z m1820
-16 c-3 -8 -6 -5 -6 6 -1 11 2 17 5 13 3 -3 4 -12 1 -19z m1330 -10 c-3 -7 -5
-2 -5 12 0 14 2 19 5 13 2 -7 2 -19 0 -25z m-4367 11 c-8 -5 -49 -29 -90 -52
-41 -23 -92 -53 -112 -65 -21 -13 -38 -21 -38 -18 0 5 142 92 205 124 42 22
61 28 35 11z m1165 1 c-11 -5 -27 -9 -35 -9 -9 0 -8 4 5 9 11 5 27 9 35 9 9 0
8 -4 -5 -9z m5722 -42 c-2 -13 -4 -5 -4 17 -1 22 1 32 4 23 2 -10 2 -28 0 -40z
m-3772 27 c-16 -8 -37 -14 -45 -14 -8 0 1 7 20 14 46 18 64 17 25 0z m1182 -7
c-3 -8 -6 -5 -6 6 -1 11 2 17 5 13 3 -3 4 -12 1 -19z m-6426 -19 c-5 -13 -10
-19 -10 -12 -1 15 10 45 15 40 3 -2 0 -15 -5 -28z m2234 21 c-3 -5 -12 -10
-18 -10 -7 0 -6 4 3 10 19 12 23 12 15 0z m990 0 c-11 -5 -27 -9 -35 -9 -9 0
-8 4 5 9 11 5 27 9 35 9 9 0 8 -4 -5 -9z m-265 -15 c-19 -7 -42 -13 -50 -13
-8 0 1 6 20 13 19 7 42 13 50 13 8 0 -1 -6 -20 -13z m2215 -3 c-3 -3 -11 0
-18 7 -9 10 -8 11 6 5 10 -3 15 -9 12 -12z m3782 -115 c-2 -23 -3 -1 -3 48 0
50 1 68 3 42 2 -26 2 -67 0 -90z m-6757 118 c0 -3 -27 -18 -60 -35 -33 -17
-60 -28 -60 -25 0 2 26 18 58 34 64 34 62 33 62 26z m955 -5 c-11 -5 -27 -9
-35 -9 -9 0 -8 4 5 9 11 5 27 9 35 9 9 0 8 -4 -5 -9z m3341 -47 c2 -12 17 -29
32 -37 15 -9 21 -15 14 -16 -26 0 -62 48 -61 82 1 19 3 25 6 13 2 -11 6 -30 9
-42z m-72 7 c4 -25 3 -31 -4 -20 -5 8 -10 26 -10 39 0 32 6 24 14 -19z m-3369
10 c-11 -5 -27 -9 -35 -9 -9 0 -8 4 5 9 11 5 27 9 35 9 9 0 8 -4 -5 -9z m5972
-37 c-3 -10 -5 -4 -5 12 0 17 2 24 5 18 2 -7 2 -21 0 -30z m-8983 -7 c-3 -15
-8 -25 -11 -23 -2 3 -1 17 3 31 3 15 8 25 11 23 2 -3 1 -17 -3 -31z m2741 24
c-27 -12 -43 -12 -25 0 8 5 22 9 30 9 10 0 8 -3 -5 -9z m205 0 c-8 -5 -22 -9
-30 -9 -10 0 -8 3 5 9 27 12 43 12 25 0z m-3016 -44 c-3 -15 -8 -25 -11 -23
-2 3 -1 17 3 31 3 15 8 25 11 23 2 -3 1 -17 -3 -31z m2096 30 c0 -2 -21 -17
-47 -32 -27 -15 -58 -34 -70 -42 -13 -8 -23 -12 -23 -9 0 5 130 87 138 87 1 0
2 -2 2 -4z m655 -6 c-27 -12 -43 -12 -25 0 8 5 22 9 30 9 10 0 8 -3 -5 -9z
m-55 -20 c-8 -5 -19 -10 -25 -10 -5 0 -3 5 5 10 8 5 20 10 25 10 6 0 3 -5 -5
-10z m3855 -61 c22 -10 33 -19 24 -19 -21 0 -106 57 -113 77 -4 9 6 4 21 -12
15 -15 46 -36 68 -46z m-3705 46 c-46 -18 -64 -17 -25 0 17 8 37 14 45 14 8 0
-1 -7 -20 -14z m-940 1 c0 -1 -35 -27 -77 -56 -428 -292 -771 -636 -1057
-1058 -27 -40 -53 -75 -59 -79 -34 -21 240 343 382 508 177 206 450 444 731
637 75 52 80 55 80 48z m-1853 -28 c-3 -8 -6 -5 -6 6 -1 11 2 17 5 13 3 -3 4
-12 1 -19z m2563 13 c-8 -5 -26 -11 -40 -15 -21 -5 -20 -3 5 9 32 15 60 20 35
6z m4027 3 c-3 -3 -12 -4 -19 -1 -8 3 -5 6 6 6 11 1 17 -2 13 -5z m2400 -56
c-2 -13 -4 -3 -4 22 0 25 2 35 4 23 2 -13 2 -33 0 -45z m-2332 42 c25 -11 -1
-11 -35 0 -20 6 -21 8 -5 8 11 0 29 -3 40 -8z m-4180 -20 c-11 -5 -27 -9 -35
-9 -9 0 -8 4 5 9 11 5 27 9 35 9 9 0 8 -4 -5 -9z m185 0 c-8 -5 -22 -9 -30 -9
-10 0 -8 3 5 9 27 12 43 12 25 0z m-2673 -22 c-3 -8 -6 -5 -6 6 -1 11 2 17 5
13 3 -3 4 -12 1 -19z m1898 14 c-6 -5 -34 -25 -62 -45 -29 -20 -75 -53 -103
-73 -27 -20 -50 -33 -50 -30 0 6 210 156 219 156 3 0 1 -4 -4 -8z m4861 -8
c18 -14 18 -14 -6 -3 -31 14 -36 19 -24 19 6 0 19 -7 30 -16z m-6829 -16 c-3
-8 -6 -5 -6 6 -1 11 2 17 5 13 3 -3 4 -12 1 -19z m2683 13 c-8 -5 -26 -11 -40
-15 -21 -5 -20 -3 5 9 32 15 60 20 35 6z m3973 -8 c-7 -2 -19 -2 -25 0 -7 3
-2 5 12 5 14 0 19 -2 13 -5z m2344 -55 c-2 -13 -4 -3 -4 22 0 25 2 35 4 23 2
-13 2 -33 0 -45z m-2300 46 c-3 -3 -12 -4 -19 -1 -8 3 -5 6 6 6 11 1 17 -2 13
-5z m-6640 -26 c-3 -8 -6 -5 -6 6 -1 11 2 17 5 13 3 -3 4 -12 1 -19z m6693 12
c18 -12 2 -12 -25 0 -13 6 -15 9 -5 9 8 0 22 -4 30 -9z m-6766 -39 c-4 -17 -9
-30 -11 -27 -3 2 -2 19 2 36 9 41 17 33 9 -9z m2586 30 c-8 -5 -26 -11 -40
-15 -21 -5 -20 -3 5 9 32 15 60 20 35 6z m4400 -58 c0 -7 -35 16 -65 42 -23
20 -18 19 18 -6 26 -18 47 -34 47 -36z m-139 29 c24 -16 59 -44 77 -64 33 -35
88 -118 78 -118 -3 0 -16 19 -30 43 -32 53 -88 109 -146 141 -25 14 -40 26
-34 26 5 0 30 -13 55 -28z m2226 -24 c-2 -13 -4 -5 -4 17 -1 22 1 32 4 23 2
-10 2 -28 0 -40z m-9010 10 c-3 -8 -6 -5 -6 6 -1 11 2 17 5 13 3 -3 4 -12 1
-19z m2413 2 c-8 -5 -19 -10 -25 -10 -5 0 -3 5 5 10 8 5 20 10 25 10 6 0 3 -5
-5 -10z m-104 -27 c-6 -6 -36 9 -36 18 0 5 9 4 20 -3 10 -7 18 -14 16 -15z
m-2118 -129 l-3 -129 -5 137 c-3 75 -1 134 3 129 4 -4 6 -66 5 -137z m-201
114 c-3 -8 -6 -5 -6 6 -1 11 2 17 5 13 3 -3 4 -12 1 -19z m133 3 c-19 -11 -60
-49 -90 -87 -58 -72 -80 -87 -80 -57 0 14 2 15 9 4 7 -10 22 4 62 54 49 63
100 105 124 105 6 -1 -6 -9 -25 -19z m8817 -43 c-2 -13 -4 -3 -4 22 0 25 2 35
4 23 2 -13 2 -33 0 -45z m-9020 20 c-3 -7 -5 -2 -5 12 0 14 2 19 5 13 2 -7 2
-19 0 -25z m7084 -87 c22 -39 37 -71 35 -71 -3 0 -22 30 -42 68 -21 37 -46 81
-56 97 l-19 30 21 -26 c12 -14 40 -58 61 -98z m1996 52 c-3 -10 -5 -2 -5 17 0
19 2 27 5 18 2 -10 2 -26 0 -35z m-9020 15 c-3 -8 -6 -5 -6 6 -1 11 2 17 5 13
3 -3 4 -12 1 -19z m1713 18 c0 -2 -49 -42 -108 -89 -189 -148 -344 -298 -499
-481 -91 -106 -129 -148 -102 -111 108 151 373 419 569 576 135 109 140 112
140 105z m-1783 -53 c-3 -10 -5 -4 -5 12 0 17 2 24 5 18 2 -7 2 -21 0 -30z
m60 -20 c-3 -10 -5 -4 -5 12 0 17 2 24 5 18 2 -7 2 -21 0 -30z m8957 -17 c-3
-21 -8 -35 -11 -32 -2 2 -1 20 3 40 3 21 8 35 11 32 2 -2 1 -20 -3 -40z m63
-3 c-3 -10 -5 -4 -5 12 0 17 2 24 5 18 2 -7 2 -21 0 -30z m-9090 -5 c-3 -8 -6
-5 -6 6 -1 11 2 17 5 13 3 -3 4 -12 1 -19z m223 -8 c0 -5 -2 -10 -4 -10 -3 0
-8 5 -11 10 -3 6 -1 10 4 10 6 0 11 -4 11 -10z m-233 -42 c-3 -7 -5 -2 -5 12
0 14 2 19 5 13 2 -7 2 -19 0 -25z m183 23 c0 -5 -7 -12 -16 -15 -14 -5 -15 -4
-4 9 14 17 20 19 20 6z m6917 -56 c21 -42 1 -19 -26 30 -13 22 -15 31 -6 20 9
-11 23 -33 32 -50z m1990 28 c-3 -10 -5 -4 -5 12 0 17 2 24 5 18 2 -7 2 -21 0
-30z m-70 -20 c-3 -10 -5 -4 -5 12 0 17 2 24 5 18 2 -7 2 -21 0 -30z m-8906
-40 c-21 -32 -58 -76 -81 -98 -40 -39 -42 -39 -56 -21 -8 11 -13 34 -13 50 1
29 2 29 9 -7 4 -20 10 -40 14 -44 10 -10 73 54 117 120 22 31 42 57 45 57 2 0
-13 -26 -35 -57z m-124 15 c-3 -7 -5 -2 -5 12 0 14 2 19 5 13 2 -7 2 -19 0
-25z m7188 2 c9 -16 13 -30 11 -30 -3 0 -12 14 -21 30 -9 17 -13 30 -11 30 3
0 12 -13 21 -30z m1902 -17 c-3 -10 -5 -4 -5 12 0 17 2 24 5 18 2 -7 2 -21 0
-30z m-70 -5 c-3 -8 -6 -5 -6 6 -1 11 2 17 5 13 3 -3 4 -12 1 -19z m-9030 -20
c-3 -8 -6 -5 -6 6 -1 11 2 17 5 13 3 -3 4 -12 1 -19z m7168 -28 c14 -27 23
-50 20 -50 -2 0 -16 23 -30 50 -14 28 -23 50 -20 50 2 0 16 -22 30 -50z
m-6918 -103 c-2 -23 -3 -1 -3 48 0 50 1 68 3 42 2 -26 2 -67 0 -90z m6998 83
c14 -27 23 -50 20 -50 -2 0 -16 23 -30 50 -14 28 -23 50 -20 50 2 0 16 -22 30
-50z m1772 18 c-3 -7 -5 -2 -5 12 0 14 2 19 5 13 2 -7 2 -19 0 -25z m70 0 c-3
-7 -5 -2 -5 12 0 14 2 19 5 13 2 -7 2 -19 0 -25z m-8780 -220 c-1 -40 -3 -8
-3 72 0 80 2 112 3 73 2 -40 2 -106 0 -145z m8700 170 c-3 -7 -5 -2 -5 12 0
14 2 19 5 13 2 -7 2 -19 0 -25z m70 0 c-3 -7 -5 -2 -5 12 0 14 2 19 5 13 2 -7
2 -19 0 -25z m-1862 -39 c9 -17 15 -33 13 -35 -3 -2 -12 12 -21 31 -21 43 -13
47 8 4z m1782 -1 c-3 -8 -6 -5 -6 6 -1 11 2 17 5 13 3 -3 4 -12 1 -19z m70
-10 c-3 -7 -5 -2 -5 12 0 14 2 19 5 13 2 -7 2 -19 0 -25z m-1773 -14 c3 -8 2
-12 -4 -9 -6 3 -10 10 -10 16 0 14 7 11 14 -7z m1693 -26 c-3 -7 -5 -2 -5 12
0 14 2 19 5 13 2 -7 2 -19 0 -25z m70 0 c-3 -8 -6 -5 -6 6 -1 11 2 17 5 13 3
-3 4 -12 1 -19z m-1809 -23 c-3 -3 -9 2 -12 12 -6 14 -5 15 5 6 7 -7 10 -15 7
-18z m81 -30 c0 -5 -6 1 -14 15 -8 14 -14 30 -14 35 0 6 6 -1 14 -15 8 -14 14
-29 14 -35z m-7082 -127 c-2 -35 -3 -9 -3 57 0 66 1 94 3 63 2 -32 2 -86 0
-120z m8730 130 c-3 -7 -5 -2 -5 12 0 14 2 19 5 13 2 -7 2 -19 0 -25z m70 0
c-3 -7 -5 -2 -5 12 0 14 2 19 5 13 2 -7 2 -19 0 -25z m-1768 -43 c0 -5 -6 1
-14 15 -8 14 -14 30 -14 35 0 6 6 -1 14 -15 8 -14 14 -29 14 -35z m75 -25 c5
-17 4 -20 -2 -10 -5 8 -13 26 -16 40 -5 17 -4 20 2 10 5 -8 13 -26 16 -40z
m1613 28 c-3 -8 -6 -5 -6 6 -1 11 2 17 5 13 3 -3 4 -12 1 -19z m70 0 c-3 -8
-6 -5 -6 6 -1 11 2 17 5 13 3 -3 4 -12 1 -19z m-1737 -53 c0 -5 -5 -3 -10 5
-5 8 -10 20 -10 25 0 6 5 3 10 -5 5 -8 10 -19 10 -25z m1657 13 c-3 -8 -6 -5
-6 6 -1 11 2 17 5 13 3 -3 4 -12 1 -19z m70 0 c-3 -8 -6 -5 -6 6 -1 11 2 17 5
13 3 -3 4 -12 1 -19z m-80 -40 c-3 -8 -6 -5 -6 6 -1 11 2 17 5 13 3 -3 4 -12
1 -19z m70 0 c-3 -8 -6 -5 -6 6 -1 11 2 17 5 13 3 -3 4 -12 1 -19z m-8700
-131 c-2 -23 -3 -1 -3 48 0 50 1 68 3 42 2 -26 2 -67 0 -90z m8617 69 c-3 -21
-8 -35 -11 -32 -2 2 -1 20 3 40 3 21 8 35 11 32 2 -2 1 -20 -3 -40z m73 22
c-3 -8 -6 -5 -6 6 -1 11 2 17 5 13 3 -3 4 -12 1 -19z m-1668 -58 c0 -9 -4 -8
-9 5 -5 11 -9 27 -9 35 0 9 4 8 9 -5 5 -11 9 -27 9 -35z m819 43 c-10 -2 -28
-2 -40 0 -13 2 -5 4 17 4 22 1 32 -1 23 -4z m-83 -13 c-27 -12 -43 -12 -25 0
8 5 22 9 30 9 10 0 8 -3 -5 -9z m132 4 c-3 -3 -12 -4 -19 -1 -8 3 -5 6 6 6 11
1 17 -2 13 -5z m790 -16 c-3 -8 -6 -5 -6 6 -1 11 2 17 5 13 3 -3 4 -12 1 -19z
m-741 -4 c18 -14 18 -14 -6 -3 -31 14 -36 19 -24 19 6 0 19 -7 30 -16z m-8009
-16 c-3 -8 -6 -5 -6 6 -1 11 2 17 5 13 3 -3 4 -12 1 -19z m7753 -5 c-60 -45
-140 -135 -188 -211 -58 -91 -78 -118 -61 -82 41 85 152 225 222 280 27 22 52
40 56 40 3 0 -10 -12 -29 -27z m-581 -43 c0 -9 -4 -8 -9 5 -5 11 -9 27 -9 35
0 9 4 8 9 -5 5 -11 9 -27 9 -35z m927 12 c-5 -4 -66 26 -66 33 0 3 16 -3 35
-12 19 -9 33 -18 31 -21z m641 -14 c-2 -13 -4 -5 -4 17 -1 22 1 32 4 23 2 -10
2 -28 0 -40z m-499 35 c-10 -2 -26 -2 -35 0 -10 3 -2 5 17 5 19 0 27 -2 18 -5z
m295 0 c-7 -2 -21 -2 -30 0 -10 3 -4 5 12 5 17 0 24 -2 18 -5z m134 -15 c-3
-8 -6 -5 -6 6 -1 11 2 17 5 13 3 -3 4 -12 1 -19z m-1570 -10 c-3 -8 -6 -5 -6
6 -1 11 2 17 5 13 3 -3 4 -12 1 -19z m816 15 c-13 -2 -35 -2 -50 0 -16 2 -5 4
22 4 28 0 40 -2 28 -4z m264 1 c-3 -3 -12 -4 -19 -1 -8 3 -5 6 6 6 11 1 17 -2
13 -5z m406 -1 c-7 -2 -19 -2 -25 0 -7 3 -2 5 12 5 14 0 19 -2 13 -5z m-7821
-121 c-48 -64 -109 -150 -137 -191 -49 -71 -50 -75 -56 -165 l-5 -91 -2 87 -2
87 67 98 c74 109 211 293 218 293 3 0 -34 -53 -83 -118z m7022 86 c-41 -28
-120 -116 -187 -208 -16 -22 -16 -22 0 8 50 86 191 232 226 232 5 0 -12 -15
-39 -32z m353 26 c-3 -3 -12 -4 -19 -1 -8 3 -5 6 6 6 11 1 17 -2 13 -5z m506
-1 c-7 -2 -21 -2 -30 0 -10 3 -4 5 12 5 17 0 24 -2 18 -5z m-8636 -65 c-2 -13
-4 -3 -4 22 0 25 2 35 4 23 2 -13 2 -33 0 -45z m7994 52 c29 -16 24 -27 -30
-65 -28 -20 -52 -44 -54 -53 -4 -14 -5 -13 -6 3 0 14 16 31 49 53 28 17 50 36
50 41 0 4 -10 13 -22 19 -13 6 -19 11 -15 11 5 1 17 -4 28 -9z m-882 -60 c0
-9 -4 -8 -9 5 -5 11 -9 27 -9 35 0 9 4 8 9 -5 5 -11 9 -27 9 -35z m1269 43
c-15 -2 -42 -2 -60 0 -18 2 -6 4 27 4 33 0 48 -2 33 -4z m-1211 -25 c-3 -8 -6
-5 -6 6 -1 11 2 17 5 13 3 -3 4 -12 1 -19z m1096 15 c-7 -2 -21 -2 -30 0 -10
3 -4 5 12 5 17 0 24 -2 18 -5z m225 0 c-10 -2 -28 -2 -40 0 -13 2 -5 4 17 4
22 1 32 -1 23 -4z m-285 -10 c-7 -2 -19 -2 -25 0 -7 3 -2 5 12 5 14 0 19 -2
13 -5z m340 0 c-7 -2 -19 -2 -25 0 -7 3 -2 5 12 5 14 0 19 -2 13 -5z m225 -12
c20 -11 53 -37 73 -58 35 -36 85 -121 76 -129 -2 -2 -14 18 -27 45 -26 57 -78
110 -135 139 -22 12 -36 21 -32 22 4 0 24 -9 45 -19z m-611 3 c-3 -3 -12 -4
-19 -1 -8 3 -5 6 6 6 11 1 17 -2 13 -5z m436 -1 c-7 -2 -19 -2 -25 0 -7 3 -2
5 12 5 14 0 19 -2 13 -5z m-8526 -50 c-3 -10 -5 -2 -5 17 0 19 2 27 5 18 2
-10 2 -26 0 -35z m8033 32 c-14 -8 -29 -14 -35 -14 -5 0 1 6 15 14 14 8 30 14
35 14 6 0 -1 -6 -15 -14z m580 -10 c14 -8 21 -14 15 -14 -5 0 -21 6 -35 14
-14 8 -20 14 -15 14 6 0 21 -6 35 -14z m-1563 -27 c-3 -8 -6 -5 -6 6 -1 11 2
17 5 13 3 -3 4 -12 1 -19z m933 17 c0 -2 -10 -9 -22 -15 -22 -11 -22 -10 -4 4
21 17 26 19 26 11z m-8043 -42 c-3 -10 -5 -4 -5 12 0 17 2 24 5 18 2 -7 2 -21
0 -30z m7180 15 c-3 -8 -6 -5 -6 6 -1 11 2 17 5 13 3 -3 4 -12 1 -19z m1614
-46 c30 -34 79 -123 79 -143 0 -6 -16 20 -35 59 -34 66 -54 90 -115 135 -24
17 -24 17 8 0 19 -10 47 -33 63 -51z m-801 43 c0 -8 -59 -35 -77 -35 -10 1 -1
7 20 15 21 7 41 16 44 19 8 7 13 8 13 1z m-7923 -42 c-3 -10 -5 -4 -5 12 0 17
2 24 5 18 2 -7 2 -21 0 -30z m7050 15 c-3 -8 -6 -5 -6 6 -1 11 2 17 5 13 3 -3
4 -12 1 -19z m70 -10 c-3 -8 -6 -5 -6 6 -1 11 2 17 5 13 3 -3 4 -12 1 -19z
m-7180 -35 c-3 -10 -5 -4 -5 12 0 17 2 24 5 18 2 -7 2 -21 0 -30z m7132 -23
c0 -9 -4 -8 -9 5 -5 11 -9 27 -9 35 0 9 4 8 9 -5 5 -11 9 -27 9 -35z m58 18
c-3 -8 -6 -5 -6 6 -1 11 2 17 5 13 3 -3 4 -12 1 -19z m-7120 -20 c-3 -7 -5 -2
-5 12 0 14 2 19 5 13 2 -7 2 -19 0 -25z m-49 -63 c0 -16 -2 -15 -8 5 -4 14 -8
34 -8 45 0 16 2 15 8 -5 4 -14 8 -34 8 -45z m7179 43 c-3 -8 -6 -5 -6 6 -1 11
2 17 5 13 3 -3 4 -12 1 -19z m-7098 -103 c-2 -17 -27 69 -27 90 0 11 6 -2 14
-30 7 -27 13 -54 13 -60z m7038 83 c-3 -8 -6 -5 -6 6 -1 11 2 17 5 13 3 -3 4
-12 1 -19z m70 -20 c-3 -8 -6 -5 -6 6 -1 11 2 17 5 13 3 -3 4 -12 1 -19z m295
-67 c-26 -49 -48 -88 -50 -86 -4 3 53 119 76 152 29 45 20 21 -26 -66z m1417
49 c0 -10 -3 -8 -9 5 -12 27 -12 43 0 25 5 -8 9 -22 9 -30z m-8389 17 c0 -2
-10 -12 -22 -23 l-23 -19 19 23 c18 21 26 27 26 19z m6617 -19 c-3 -8 -6 -5
-6 6 -1 11 2 17 5 13 3 -3 4 -12 1 -19z m306 -3 c-3 -9 -8 -14 -10 -11 -3 3
-2 9 2 15 9 16 15 13 8 -4z m-236 -17 c-3 -8 -6 -5 -6 6 -1 11 2 17 5 13 3 -3
4 -12 1 -19z m-60 -20 c-3 -8 -6 -5 -6 6 -1 11 2 17 5 13 3 -3 4 -12 1 -19z
m1787 -28 c5 -17 4 -20 -2 -10 -5 8 -13 26 -16 40 -5 17 -4 20 2 10 5 -8 13
-26 16 -40z m-8472 11 c-9 -16 -18 -28 -21 -26 -4 5 27 55 34 55 2 0 -4 -13
-13 -29z m6956 4 c-6 -14 -13 -23 -15 -21 -5 5 15 46 22 46 3 0 -1 -11 -7 -25z
m-7391 -17 c-3 -7 -5 -2 -5 12 0 14 2 19 5 13 2 -7 2 -19 0 -25z m7190 10 c-3
-8 -6 -5 -6 6 -1 11 2 17 5 13 3 -3 4 -12 1 -19z m-60 -20 c-3 -8 -6 -5 -6 6
-1 11 2 17 5 13 3 -3 4 -12 1 -19z m1710 0 c-3 -8 -6 -5 -6 6 -1 11 2 17 5 13
3 -3 4 -12 1 -19z m-1629 -53 c0 -16 -2 -15 -8 5 -11 34 -11 60 0 35 5 -11 8
-29 8 -40z m-7180 -30 c0 -5 -6 4 -13 20 -8 17 -14 37 -14 45 0 8 7 -1 14 -20
7 -19 13 -39 13 -45z m70 0 c0 -5 -6 4 -13 20 -8 17 -14 37 -14 45 0 8 7 -1
14 -20 7 -19 13 -39 13 -45z m7253 28 c-11 -21 -20 -35 -21 -31 0 12 33 78 38
74 2 -2 -6 -21 -17 -43z m-214 15 c-3 -8 -6 -5 -6 6 -1 11 2 17 5 13 3 -3 4
-12 1 -19z m1710 -40 c-2 -13 -4 -3 -4 22 0 25 2 35 4 23 2 -13 2 -33 0 -45z
m70 15 c-3 -10 -5 -2 -5 17 0 19 2 27 5 18 2 -10 2 -26 0 -35z m-8490 -30 c-2
-16 -4 -5 -4 22 0 28 2 40 4 28 2 -13 2 -35 0 -50z m6732 -13 c0 -9 -4 -8 -9
5 -5 11 -9 27 -9 35 0 9 4 8 9 -5 5 -11 9 -27 9 -35z m237 3 c-8 -15 -15 -25
-16 -21 0 12 23 58 27 54 3 -2 -2 -17 -11 -33z m-167 -23 c0 -9 -4 -8 -9 5 -5
11 -9 27 -9 35 0 9 4 8 9 -5 5 -11 9 -27 9 -35z m1678 3 c-3 -10 -5 -4 -5 12
0 17 2 24 5 18 2 -7 2 -21 0 -30z m-8857 -8 c0 -5 -5 -3 -10 5 -5 8 -10 20
-10 25 0 6 5 3 10 -5 5 -8 10 -19 10 -25z m70 0 c0 -5 -5 -3 -10 5 -5 8 -10
20 -10 25 0 6 5 3 10 -5 5 -8 10 -19 10 -25z m7201 8 c-12 -20 -14 -14 -5 12
4 9 9 14 11 11 3 -2 0 -13 -6 -23z m1516 -40 c-3 -10 -5 -2 -5 17 0 19 2 27 5
18 2 -10 2 -26 0 -35z m-1670 15 c-3 -8 -6 -5 -6 6 -1 11 2 17 5 13 3 -3 4
-12 1 -19z m-6730 -50 c-2 -13 -4 -3 -4 22 0 25 2 35 4 23 2 -13 2 -33 0 -45z
m6932 23 c-6 -18 -13 -30 -15 -28 -2 2 1 18 7 36 6 18 13 30 15 28 2 -2 -1
-18 -7 -36z m-7301 4 c-3 -3 -9 2 -12 12 -6 14 -5 15 5 6 7 -7 10 -15 7 -18z
m91 -42 c17 -35 29 -63 26 -63 -5 0 -65 116 -65 126 0 12 6 2 39 -63z m7090
17 c0 -9 -4 -8 -9 5 -5 11 -9 27 -9 35 0 9 4 8 9 -5 5 -11 9 -27 9 -35z m40 1
c-22 -39 -39 -53 -39 -31 0 6 5 10 10 10 6 0 18 16 27 35 9 19 18 33 21 31 2
-3 -6 -23 -19 -45z m1608 -8 c-3 -10 -5 -2 -5 17 0 19 2 27 5 18 2 -10 2 -26
0 -35z m-1720 15 c-3 -8 -6 -5 -6 6 -1 11 2 17 5 13 3 -3 4 -12 1 -19z m-7071
-49 c14 -28 24 -53 22 -55 -2 -2 -16 21 -31 51 -15 30 -25 55 -22 55 3 0 16
-23 31 -51z m8721 14 c-3 -10 -5 -4 -5 12 0 17 2 24 5 18 2 -7 2 -21 0 -30z
m-1640 -5 c-3 -8 -6 -5 -6 6 -1 11 2 17 5 13 3 -3 4 -12 1 -19z m-6680 -25
c-3 -10 -5 -4 -5 12 0 17 2 24 5 18 2 -7 2 -21 0 -30z m8380 -10 c-3 -10 -5
-4 -5 12 0 17 2 24 5 18 2 -7 2 -21 0 -30z m-8440 -40 c-2 -16 -4 -5 -4 22 0
28 2 40 4 28 2 -13 2 -35 0 -50z m6750 35 c-3 -8 -6 -5 -6 6 -1 11 2 17 5 13
3 -3 4 -12 1 -19z m1620 -10 c-3 -7 -5 -2 -5 12 0 14 2 19 5 13 2 -7 2 -19 0
-25z m-8300 -135 c-2 -27 -3 -5 -3 47 0 52 1 74 3 48 2 -27 2 -69 0 -95z
m-281 55 c13 -27 22 -48 19 -48 -4 0 -56 94 -63 115 -7 19 19 -20 44 -67z
m7007 -10 c9 -6 9 -8 -1 -8 -13 0 -43 58 -41 82 0 7 7 -5 15 -27 8 -21 20 -43
27 -47z m1634 45 c-3 -10 -5 -4 -5 12 0 17 2 24 5 18 2 -7 2 -21 0 -30z m-70
-5 c-3 -7 -5 -2 -5 12 0 14 2 19 5 13 2 -7 2 -19 0 -25z m-8652 -9 c9 -17 15
-33 13 -35 -3 -2 -12 12 -21 31 -21 43 -13 47 8 4z m7149 -6 c-11 -15 -26 -29
-33 -31 -7 -2 -1 7 13 22 14 14 26 31 26 37 0 7 3 9 7 6 4 -4 -2 -19 -13 -34z
m-6847 -80 c-2 -16 -4 -3 -4 27 0 30 2 43 4 28 2 -16 2 -40 0 -55z m8340 45
c-3 -7 -5 -2 -5 12 0 14 2 19 5 13 2 -7 2 -19 0 -25z m70 0 c-3 -7 -5 -2 -5
12 0 14 2 19 5 13 2 -7 2 -19 0 -25z m-8652 -78 c19 -38 33 -70 30 -70 -2 0
-21 32 -40 70 -19 39 -33 70 -30 70 2 0 21 -31 40 -70z m8572 38 c-3 -8 -6 -5
-6 6 -1 11 2 17 5 13 3 -3 4 -12 1 -19z m67 -22 c-3 -21 -8 -35 -11 -32 -2 2
-1 20 3 40 3 21 8 35 11 32 2 -2 1 -20 -3 -40z m-8564 -16 c11 -22 18 -40 15
-40 -2 0 -14 18 -25 40 -11 22 -18 40 -15 40 2 0 14 -18 25 -40z m8485 -20
c-9 -41 -17 -33 -9 9 4 17 9 30 11 27 3 -2 2 -19 -2 -36z m-8308 -112 c-2 -24
-4 -7 -4 37 0 44 2 63 4 43 2 -21 2 -57 0 -80z m60 75 c-3 -10 -5 -4 -5 12 0
17 2 24 5 18 2 -7 2 -21 0 -30z m8302 -22 c-7 -23 -14 -39 -16 -37 -3 2 1 23
8 45 7 23 14 39 16 37 3 -2 -1 -23 -8 -45z m-8494 -1 c9 -16 13 -30 11 -30 -3
0 -12 14 -21 30 -9 17 -13 30 -11 30 3 0 12 -13 21 -30z m8405 -55 c-12 -36
-24 -65 -26 -63 -2 2 6 34 18 71 12 36 24 65 26 62 2 -2 -6 -34 -18 -70z
m-8425 -50 c21 -38 34 -65 28 -60 -6 6 -27 42 -48 80 -21 39 -34 66 -28 60 6
-5 27 -41 48 -80z m70 15 c14 -27 23 -50 20 -50 -2 0 -16 23 -30 50 -14 28
-23 50 -20 50 2 0 16 -22 30 -50z m152 -57 c-2 -21 -4 -6 -4 32 0 39 2 55 4
38 2 -18 2 -50 0 -70z m-61 -81 c-8 -8 -29 13 -49 50 -10 18 -11 24 -3 13 49
-65 45 -65 48 0 l2 60 3 -59 c2 -32 2 -61 -1 -64z m8300 81 c-8 -15 -15 -25
-16 -21 0 12 23 58 27 54 3 -2 -2 -17 -11 -33z m-75 -10 c-12 -20 -14 -14 -5
12 4 9 9 14 11 11 3 -2 0 -13 -6 -23z m-8312 -78 c13 -22 15 -31 6 -20 -18 22
-53 86 -38 70 6 -5 20 -28 32 -50z m8272 -14 c-17 -34 -33 -61 -36 -61 -3 0
10 29 27 65 18 35 34 63 36 61 2 -2 -11 -31 -27 -65z m50 -40 c-28 -56 -53
-101 -56 -101 -3 0 19 47 47 105 29 57 54 103 56 101 2 -2 -20 -49 -47 -105z
m-8164 -18 c-2 -21 -4 -4 -4 37 0 41 2 58 4 38 2 -21 2 -55 0 -75z m-96 -28
l10 -20 -16 20 c-9 11 -21 29 -26 40 l-10 20 16 -20 c9 -11 21 -29 26 -40z
m8158 -7 c-35 -65 -108 -166 -170 -232 -62 -66 -163 -146 -185 -146 -5 0 16
16 46 36 97 63 195 171 275 302 37 60 58 85 34 40z m-8119 -62 c0 -12 -5 -7
-19 24 -11 24 -11 24 3 6 9 -11 16 -24 16 -30z m67 -8 c-2 -13 -4 -5 -4 17 -1
22 1 32 4 23 2 -10 2 -28 0 -40z m8078 -17 c-8 -17 -19 -33 -25 -36 -5 -3 -1
10 11 29 25 43 36 48 14 7z m-8138 -53 c-2 -13 -4 -3 -4 22 0 25 2 35 4 23 2
-13 2 -33 0 -45z m70 -75 c-2 -21 -4 -4 -4 37 0 41 2 58 4 38 2 -21 2 -55 0
-75z m8026 63 c-36 -65 -200 -227 -263 -261 -21 -11 -6 3 70 63 62 49 118 109
170 180 24 33 37 43 23 18z m-8086 -93 c-3 -10 -5 -4 -5 12 0 17 2 24 5 18 2
-7 2 -21 0 -30z m70 -90 c-2 -16 -4 -5 -4 22 0 28 2 40 4 28 2 -13 2 -35 0
-50z m-60 -76 c-2 -23 -3 -1 -3 48 0 50 1 68 3 42 2 -26 2 -67 0 -90z m7197
36 c-5 -5 -12 -12 -16 -18 -4 -6 -8 -2 -8 8 0 9 7 17 17 17 9 0 12 -3 7 -7z
m49 0 c-7 -2 -19 -2 -25 0 -7 3 -2 5 12 5 14 0 19 -2 13 -5z m-7176 -80 c-2
-16 -4 -3 -4 27 0 30 2 43 4 28 2 -16 2 -40 0 -55z m7220 71 c-3 -3 -12 -4
-19 -1 -8 3 -5 6 6 6 11 1 17 -2 13 -5z m46 -11 c-7 -2 -19 -2 -25 0 -7 3 -2
5 12 5 14 0 19 -2 13 -5z m50 -10 c-7 -2 -19 -2 -25 0 -7 3 -2 5 12 5 14 0 19
-2 13 -5z m284 1 c-3 -3 -12 -4 -19 -1 -8 3 -5 6 6 6 11 1 17 -2 13 -5z m-480
-51 c-3 -10 -5 -2 -5 17 0 19 2 27 5 18 2 -10 2 -26 0 -35z m271 40 c-10 -2
-26 -2 -35 0 -10 3 -2 5 17 5 19 0 27 -2 18 -5z m160 0 c-10 -2 -28 -2 -40 0
-13 2 -5 4 17 4 22 1 32 -1 23 -4z m172 -8 c0 -7 -68 -34 -99 -41 -14 -2 1 6
34 20 71 29 65 27 65 21z m-467 -32 c-7 -2 -19 -2 -25 0 -7 3 -2 5 12 5 14 0
19 -2 13 -5z m-7316 -50 c-3 -10 -5 -2 -5 17 0 19 2 27 5 18 2 -10 2 -26 0
-35z m7360 41 c-3 -3 -12 -4 -19 -1 -8 3 -5 6 6 6 11 1 17 -2 13 -5z m46 -11
c-7 -2 -19 -2 -25 0 -7 3 -2 5 12 5 14 0 19 -2 13 -5z m240 0 c-7 -2 -21 -2
-30 0 -10 3 -4 5 12 5 17 0 24 -2 18 -5z m-95 -10 c-21 -2 -57 -2 -80 0 -24 2
-7 4 37 4 44 0 63 -2 43 -4z m-361 -185 c-2 -35 -3 -7 -3 62 0 69 1 97 3 63 2
-35 2 -91 0 -125z m-7120 105 c-2 -16 -4 -5 -4 22 0 28 2 40 4 28 2 -13 2 -35
0 -50z m-60 -65 c-2 -18 -4 -6 -4 27 0 33 2 48 4 33 2 -15 2 -42 0 -60z m70
-55 c-2 -16 -4 -5 -4 22 0 28 2 40 4 28 2 -13 2 -35 0 -50z m7180 25 c-3 -8
-6 -5 -6 6 -1 11 2 17 5 13 3 -3 4 -12 1 -19z m-7240 -60 c-2 -13 -4 -5 -4 17
-1 22 1 32 4 23 2 -10 2 -28 0 -40z m7240 -20 c-3 -7 -5 -2 -5 12 0 14 2 19 5
13 2 -7 2 -19 0 -25z m-7170 -40 c-2 -13 -4 -5 -4 17 -1 22 1 32 4 23 2 -10 2
-28 0 -40z m-60 -45 c-2 -16 -4 -5 -4 22 0 28 2 40 4 28 2 -13 2 -35 0 -50z
m7160 -75 c-2 -29 -3 -8 -3 47 0 55 1 79 3 53 2 -26 2 -71 0 -100z m70 110
c-3 -7 -5 -2 -5 12 0 14 2 19 5 13 2 -7 2 -19 0 -25z m0 -70 c-2 -13 -4 -5 -4
17 -1 22 1 32 4 23 2 -10 2 -28 0 -40z m-7160 -10 c-2 -13 -4 -5 -4 17 -1 22
1 32 4 23 2 -10 2 -28 0 -40z m-60 -40 c-2 -13 -4 -5 -4 17 -1 22 1 32 4 23 2
-10 2 -28 0 -40z m7210 -50 c-2 -13 -4 -3 -4 22 0 25 2 35 4 23 2 -13 2 -33 0
-45z m-7140 5 c-3 -10 -5 -2 -5 17 0 19 2 27 5 18 2 -10 2 -26 0 -35z m-60
-30 c-3 -10 -5 -4 -5 12 0 17 2 24 5 18 2 -7 2 -21 0 -30z m7130 -60 c-2 -16
-4 -5 -4 22 0 28 2 40 4 28 2 -13 2 -35 0 -50z m-7060 10 c-3 -10 -5 -2 -5 17
0 19 2 27 5 18 2 -10 2 -26 0 -35z m7120 -60 c-2 -21 -4 -6 -4 32 0 39 2 55 4
38 2 -18 2 -50 0 -70z m-7180 30 c-3 -10 -5 -2 -5 17 0 19 2 27 5 18 2 -10 2
-26 0 -35z m70 -30 c-3 -10 -5 -4 -5 12 0 17 2 24 5 18 2 -7 2 -21 0 -30z
m-60 -30 c-3 -10 -5 -4 -5 12 0 17 2 24 5 18 2 -7 2 -21 0 -30z m7100 -15 c-2
-13 -4 -5 -4 17 -1 22 1 32 4 23 2 -10 2 -28 0 -40z m-7030 -15 c-3 -10 -5 -4
-5 12 0 17 2 24 5 18 2 -7 2 -21 0 -30z m-60 -25 c-3 -7 -5 -2 -5 12 0 14 2
19 5 13 2 -7 2 -19 0 -25z m7150 -20 c-2 -13 -4 -5 -4 17 -1 22 1 32 4 23 2
-10 2 -28 0 -40z m-7080 -15 c-3 -10 -5 -4 -5 12 0 17 2 24 5 18 2 -7 2 -21 0
-30z m7010 -15 c-2 -13 -4 -5 -4 17 -1 22 1 32 4 23 2 -10 2 -28 0 -40z
m-7070 -10 c-3 -7 -5 -2 -5 12 0 14 2 19 5 13 2 -7 2 -19 0 -25z m7130 -35
c-3 -10 -5 -2 -5 17 0 19 2 27 5 18 2 -10 2 -26 0 -35z m-7060 5 c-3 -7 -5 -2
-5 12 0 14 2 19 5 13 2 -7 2 -19 0 -25z m-60 -20 c-3 -7 -5 -2 -5 12 0 14 2
19 5 13 2 -7 2 -19 0 -25z m7050 -5 c-3 -10 -5 -4 -5 12 0 17 2 24 5 18 2 -7
2 -21 0 -30z m-6980 -25 c-3 -7 -5 -2 -5 12 0 14 2 19 5 13 2 -7 2 -19 0 -25z
m7040 -10 c-3 -7 -5 -2 -5 12 0 14 2 19 5 13 2 -7 2 -19 0 -25z m-7100 -10
c-3 -7 -5 -2 -5 12 0 14 2 19 5 13 2 -7 2 -19 0 -25z m7030 -20 c-3 -7 -5 -2
-5 12 0 14 2 19 5 13 2 -7 2 -19 0 -25z m-6960 -10 c-3 -7 -5 -2 -5 12 0 14 2
19 5 13 2 -7 2 -19 0 -25z m7020 -10 c-3 -7 -5 -2 -5 12 0 14 2 19 5 13 2 -7
2 -19 0 -25z m-7080 -10 c-3 -7 -5 -2 -5 12 0 14 2 19 5 13 2 -7 2 -19 0 -25z
m7010 -20 c-3 -7 -5 -2 -5 12 0 14 2 19 5 13 2 -7 2 -19 0 -25z m-6940 0 c-3
-8 -6 -5 -6 6 -1 11 2 17 5 13 3 -3 4 -12 1 -19z m7000 -20 c-3 -7 -5 -2 -5
12 0 14 2 19 5 13 2 -7 2 -19 0 -25z m-7060 -10 c-3 -7 -5 -2 -5 12 0 14 2 19
5 13 2 -7 2 -19 0 -25z m70 -20 c-3 -7 -5 -2 -5 12 0 14 2 19 5 13 2 -7 2 -19
0 -25z m6920 10 c-3 -8 -6 -5 -6 6 -1 11 2 17 5 13 3 -3 4 -12 1 -19z m60 -20
c-3 -8 -6 -5 -6 6 -1 11 2 17 5 13 3 -3 4 -12 1 -19z m-7040 -10 c-3 -8 -6 -5
-6 6 -1 11 2 17 5 13 3 -3 4 -12 1 -19z m6970 -10 c-3 -8 -6 -5 -6 6 -1 11 2
17 5 13 3 -3 4 -12 1 -19z m-6900 -10 c-3 -8 -6 -5 -6 6 -1 11 2 17 5 13 3 -3
4 -12 1 -19z m6960 -10 c-3 -8 -6 -5 -6 6 -1 11 2 17 5 13 3 -3 4 -12 1 -19z
m-7020 -10 c-3 -8 -6 -5 -6 6 -1 11 2 17 5 13 3 -3 4 -12 1 -19z m6950 -10
c-3 -8 -6 -5 -6 6 -1 11 2 17 5 13 3 -3 4 -12 1 -19z m-6880 -10 c-3 -8 -6 -5
-6 6 -1 11 2 17 5 13 3 -3 4 -12 1 -19z m6940 -10 c-3 -8 -6 -5 -6 6 -1 11 2
17 5 13 3 -3 4 -12 1 -19z m-6989 -53 c0 -16 -2 -15 -8 5 -4 14 -8 34 -8 45 0
16 2 15 8 -5 4 -14 8 -34 8 -45z m6916 21 c-3 -15 -8 -25 -11 -23 -2 3 -1 17
3 31 3 15 8 25 11 23 2 -3 1 -17 -3 -31z m-6857 2 c-3 -8 -6 -5 -6 6 -1 11 2
17 5 13 3 -3 4 -12 1 -19z m6917 -22 c-3 -15 -8 -25 -11 -23 -2 3 -1 17 3 31
3 15 8 25 11 23 2 -3 1 -17 -3 -31z m-6896 -56 c0 -9 -3 -7 -8 5 -5 11 -8 29
-8 40 0 16 2 15 8 -5 4 -14 8 -32 8 -40z m-71 8 c-3 -8 -6 -5 -6 6 -1 11 2 17
5 13 3 -3 4 -12 1 -19z m6873 -43 c-16 -47 -23 -40 -8 8 6 20 13 35 16 33 2
-3 -1 -21 -8 -41z m-6851 -25 c0 -9 -4 -8 -9 5 -5 11 -9 27 -9 35 0 9 4 8 9
-5 5 -11 9 -27 9 -35z m58 18 c-3 -8 -6 -5 -6 6 -1 11 2 17 5 13 3 -3 4 -12 1
-19z m6837 -52 c-9 -26 -18 -45 -20 -43 -2 2 3 25 12 51 9 26 18 45 20 43 2
-2 -3 -25 -12 -51z m-6827 12 c-3 -8 -6 -5 -6 6 -1 11 2 17 5 13 3 -3 4 -12 1
-19z m-60 -20 c-3 -8 -6 -5 -6 6 -1 11 2 17 5 13 3 -3 4 -12 1 -19z m6812 -17
c-6 -18 -13 -30 -15 -28 -2 2 1 18 7 36 6 18 13 30 15 28 2 -2 -1 -18 -7 -36z
m-6742 -3 c-3 -8 -6 -5 -6 6 -1 11 2 17 5 13 3 -3 4 -12 1 -19z m-48 -48 c0
-9 -4 -8 -9 5 -5 11 -9 27 -9 35 0 9 4 8 9 -5 5 -11 9 -27 9 -35z m6827 -17
c-8 -15 -15 -25 -16 -21 0 12 23 58 27 54 3 -2 -2 -17 -11 -33z m-65 0 c-12
-20 -14 -14 -5 12 4 9 9 14 11 11 3 -2 0 -13 -6 -23z m-6694 -5 c-3 -8 -6 -5
-6 6 -1 11 2 17 5 13 3 -3 4 -12 1 -19z m-48 -48 c0 -9 -4 -8 -9 5 -5 11 -9
27 -9 35 0 9 4 8 9 -5 5 -11 9 -27 9 -35z m70 -20 c0 -9 -4 -8 -9 5 -5 11 -9
27 -9 35 0 9 4 8 9 -5 5 -11 9 -27 9 -35z m6627 -26 c-19 -38 -35 -66 -36 -62
0 11 63 138 68 134 2 -2 -13 -35 -32 -72z m70 9 c-14 -26 -25 -45 -26 -41 0
12 43 98 48 94 2 -2 -8 -26 -22 -53z m-6738 -63 c0 -8 -6 1 -13 20 -7 19 -13
42 -13 50 0 8 6 -1 13 -20 7 -19 13 -42 13 -50z m49 38 c-3 -8 -6 -5 -6 6 -1
11 2 17 5 13 3 -3 4 -12 1 -19z m6646 -63 c-9 -19 -18 -33 -21 -31 -4 5 26 66
33 66 3 0 -3 -16 -12 -35z m-6614 -35 c0 -9 -4 -8 -9 5 -5 11 -9 27 -9 35 0 9
4 8 9 -5 5 -11 9 -27 9 -35z m-60 -10 c0 -9 -4 -8 -9 5 -5 11 -9 27 -9 35 0 9
4 8 9 -5 5 -11 9 -27 9 -35z m6591 10 c-11 -22 -23 -40 -25 -40 -3 0 4 18 15
40 11 22 23 40 25 40 3 0 -4 -18 -15 -40z m60 -18 c0 -5 -7 -17 -15 -28 -14
-18 -14 -17 -4 9 12 27 19 34 19 19z m-6643 -34 c-3 -8 -6 -5 -6 6 -1 11 2 17
5 13 3 -3 4 -12 1 -19z m82 -48 c0 -9 -4 -8 -9 5 -5 11 -9 27 -9 35 0 9 4 8 9
-5 5 -11 9 -27 9 -35z m6457 23 c-8 -16 -22 -37 -31 -48 -16 -19 -17 -19 -3 5
8 14 20 35 27 48 6 12 14 22 17 22 2 0 -2 -12 -10 -27z m-6508 -73 c0 -8 -6 1
-13 20 -7 19 -13 42 -13 50 0 8 6 -1 13 -20 7 -19 13 -42 13 -50z m6561 36
c-29 -49 -36 -46 -8 4 12 22 24 38 26 36 2 -2 -6 -20 -18 -40z m-6479 -71 c0
-5 -5 -3 -10 5 -5 8 -10 20 -10 25 0 6 5 3 10 -5 5 -8 10 -19 10 -25z m6339
-26 c-51 -75 -199 -248 -265 -309 -28 -26 -19 -13 22 30 97 103 184 207 233
279 23 34 44 61 47 61 2 0 -14 -28 -37 -61z m94 20 c-79 -133 -241 -311 -435
-476 -160 -136 -505 -401 -548 -422 -21 -10 -22 -9 -6 1 85 58 427 323 531
412 72 61 141 120 154 131 50 42 205 223 259 303 56 83 79 108 45 51z m-6493
-14 c0 -5 -5 -3 -10 5 -5 8 -10 20 -10 25 0 6 5 3 10 -5 5 -8 10 -19 10 -25z
m109 -90 c0 -5 -11 10 -24 35 -13 25 -24 50 -24 55 0 6 11 -10 24 -35 13 -25
24 -49 24 -55z m-5 -122 c53 -106 94 -193 91 -193 -5 0 -195 376 -195 387 0
12 8 -3 104 -194z m80 -30 c31 -62 54 -113 51 -113 -5 0 -115 216 -115 227 0
12 7 -1 64 -114z m5880 -134 c-38 -42 -197 -172 -361 -296 -158 -117 -323
-224 -424 -272 -61 -29 -35 -13 114 73 173 101 487 333 631 468 54 50 72 62
40 27z m-5799 -19 c9 -16 13 -30 11 -30 -3 0 -12 14 -21 30 -9 17 -13 30 -11
30 3 0 12 -13 21 -30z m-40 -50 c9 -16 13 -30 11 -30 -3 0 -12 14 -21 30 -9
17 -13 30 -11 30 3 0 12 -13 21 -30z m86 -27 c12 -21 45 -69 72 -107 27 -37
44 -66 39 -62 -20 12 -150 206 -139 206 3 0 16 -17 28 -37z m-46 -39 c9 -15
12 -23 6 -20 -11 7 -35 46 -28 46 3 0 12 -12 22 -26z m97 -139 c72 -98 255
-279 366 -359 50 -38 92 -70 92 -73 0 -7 -92 60 -175 128 -121 98 -290 284
-348 384 -22 36 -7 19 65 -80z m172 -110 c19 -19 31 -35 26 -35 -4 0 -35 33
-70 73 -58 66 -40 51 44 -38z m109 -102 c35 -32 81 -73 102 -91 l40 -33 -47
34 c-54 39 -174 147 -164 147 3 0 35 -26 69 -57z m4837 -38 c0 -2 -22 -16 -50
-30 -27 -14 -50 -23 -50 -20 0 2 21 16 48 29 53 28 52 28 52 21z m-250 -70 c0
-3 -31 -21 -70 -40 -38 -19 -70 -33 -70 -30 0 4 126 72 138 75 1 0 2 -2 2 -5z
m120 0 c0 -2 -13 -11 -30 -20 -38 -19 -40 -11 -2 9 31 17 32 18 32 11z m-4440
-101 c0 -2 -27 14 -60 36 -33 22 -60 43 -60 46 0 2 27 -14 60 -36 33 -22 60
-43 60 -46z m4370 61 c0 -2 -18 -14 -40 -25 -22 -11 -40 -18 -40 -15 0 2 17
13 38 24 42 23 42 23 42 16z m-280 -80 c-47 -24 -89 -44 -95 -44 -5 0 28 20
75 44 47 24 90 44 95 44 6 0 -28 -20 -75 -44z m190 30 c0 -2 -18 -14 -40 -25
-22 -11 -40 -18 -40 -15 0 2 17 13 38 24 42 23 42 23 42 16z m-4215 -50 l20
-16 -20 10 c-11 5 -29 17 -40 26 l-20 16 20 -10 c11 -5 29 -17 40 -26z m-45
-41 c41 -28 99 -63 128 -78 28 -14 52 -29 52 -31 0 -11 -108 50 -192 107 -49
33 -88 62 -88 65 0 5 8 0 100 -63z m4170 41 c0 -6 -117 -65 -127 -65 -4 1 21
16 57 35 72 38 70 37 70 30z m-4060 -41 c0 -2 -9 0 -20 6 -11 6 -20 13 -20 16
0 2 9 0 20 -6 11 -6 20 -13 20 -16z m3830 1 c-14 -8 -29 -14 -35 -14 -5 0 1 6
15 14 14 8 30 14 35 14 6 0 -1 -6 -15 -14z m-3695 -78 c6 -6 -17 4 -50 22 -33
18 -64 38 -70 44 -5 5 17 -5 50 -23 33 -18 65 -38 70 -43z m3635 53 c-8 -5
-19 -10 -25 -10 -5 0 -3 5 5 10 8 5 20 10 25 10 6 0 3 -5 -5 -10z m-60 -25
c-14 -8 -29 -14 -35 -14 -5 0 1 6 15 14 14 8 30 14 35 14 6 0 -1 -6 -15 -14z
m170 0 c-14 -8 -29 -14 -35 -14 -5 0 1 6 15 14 14 8 30 14 35 14 6 0 -1 -6
-15 -14z m-105 -47 c-77 -40 -184 -80 -195 -73 -4 3 -10 1 -12 -4 -4 -13 -216
-83 -228 -76 -6 3 -10 1 -10 -5 0 -7 -6 -10 -14 -7 -8 3 -16 2 -18 -3 -8 -22
-629 -169 -663 -156 -8 3 -15 0 -17 -5 -2 -6 -29 -11 -61 -12 -31 -1 -57 -6
-57 -11 0 -4 -16 -6 -35 -4 -19 2 -35 1 -35 -2 0 -14 -358 -43 -545 -44 -115
-1 -174 1 -140 5 33 4 117 7 187 8 133 1 384 27 600 62 70 11 132 18 138 14 5
-3 10 -1 10 6 0 7 10 9 25 7 14 -3 25 -2 25 2 0 4 19 10 43 14 88 14 408 97
561 145 88 28 164 47 169 44 6 -3 7 -2 4 4 -3 5 18 17 48 27 30 9 101 35 157
56 125 47 143 50 63 8z m-155 12 c-8 -5 -19 -10 -25 -10 -5 0 -3 5 5 10 8 5
20 10 25 10 6 0 3 -5 -5 -10z m-3324 -78 c-5 -4 -146 66 -146 73 0 3 34 -12
75 -32 41 -20 73 -39 71 -41z m3254 54 c0 -6 -93 -37 -97 -32 -2 2 15 11 39
19 47 17 58 19 58 13z m-3324 -84 c-5 -4 -126 56 -126 63 0 3 29 -10 65 -27
35 -18 63 -34 61 -36z m134 8 c19 -11 31 -19 25 -19 -5 0 -26 8 -45 19 -19 11
-30 19 -25 19 6 0 26 -8 45 -19z m2960 -5 c-19 -7 -42 -13 -50 -13 -8 0 1 6
20 13 19 7 42 13 50 13 8 0 -1 -6 -20 -13z m-3055 -23 c-3 -3 -11 0 -18 7 -9
10 -8 11 6 5 10 -3 15 -9 12 -12z m165 -2 c8 -5 11 -10 5 -10 -5 0 -17 5 -25
10 -8 5 -10 10 -5 10 6 0 17 -5 25 -10z m2805 0 c-11 -5 -27 -9 -35 -9 -9 0
-8 4 5 9 11 5 27 9 35 9 9 0 8 -4 -5 -9z m-2885 -30 c19 -11 31 -19 25 -19 -5
0 -26 8 -45 19 -19 11 -30 19 -25 19 6 0 26 -8 45 -19z m130 10 c8 -5 11 -10
5 -10 -5 0 -17 5 -25 10 -8 5 -10 10 -5 10 6 0 17 -5 25 -10z m2667 -6 c-3 -3
-12 -4 -19 -1 -8 3 -5 6 6 6 11 1 17 -2 13 -5z m-2587 -26 c10 -6 7 -7 -10 -2
-14 3 -32 11 -40 16 -10 6 -7 7 10 2 14 -3 32 -11 40 -16z m2547 16 c-3 -3
-12 -4 -19 -1 -8 3 -5 6 6 6 11 1 17 -2 13 -5z m-40 -10 c-3 -3 -12 -4 -19 -1
-8 3 -5 6 6 6 11 1 17 -2 13 -5z m-40 -10 c-3 -3 -12 -4 -19 -1 -8 3 -5 6 6 6
11 1 17 -2 13 -5z m-2577 -19 c14 -8 21 -14 15 -14 -5 0 -21 6 -35 14 -14 8
-20 14 -15 14 6 0 21 -6 35 -14z m165 5 c13 -6 15 -9 5 -9 -8 0 -22 4 -30 9
-18 12 -2 12 25 0z m2372 4 c-3 -3 -12 -4 -19 -1 -8 3 -5 6 6 6 11 1 17 -2 13
-5z m-40 -10 c-3 -3 -12 -4 -19 -1 -8 3 -5 6 6 6 11 1 17 -2 13 -5z m-44 -11
c-7 -2 -19 -2 -25 0 -7 3 -2 5 12 5 14 0 19 -2 13 -5z m-2393 -13 c8 -5 11
-10 5 -10 -5 0 -17 5 -25 10 -8 5 -10 10 -5 10 6 0 17 -5 25 -10z m2347 4 c-3
-3 -12 -4 -19 -1 -8 3 -5 6 6 6 11 1 17 -2 13 -5z m-2112 -14 c13 -5 14 -9 5
-9 -8 0 -24 4 -35 9 -13 5 -14 9 -5 9 8 0 24 -4 35 -9z m2068 3 c-7 -2 -19 -2
-25 0 -7 3 -2 5 12 5 14 0 19 -2 13 -5z m-2208 -29 c24 -11 25 -13 5 -8 -14 4
-38 13 -55 20 -24 11 -25 13 -5 8 14 -4 39 -13 55 -20z m2158 19 c-7 -2 -19
-2 -25 0 -7 3 -2 5 12 5 14 0 19 -2 13 -5z m-1966 -9 c-3 -3 -12 -4 -19 -1 -8
3 -5 6 6 6 11 1 17 -2 13 -5z m1916 -1 c-7 -2 -21 -2 -30 0 -10 3 -4 5 12 5
17 0 24 -2 18 -5z m-1838 -17 c28 -8 41 -14 30 -14 -21 0 -107 25 -90 27 6 0
33 -6 60 -13z m1778 7 c-7 -2 -19 -2 -25 0 -7 3 -2 5 12 5 14 0 19 -2 13 -5z
m-50 -10 c-7 -2 -21 -2 -30 0 -10 3 -4 5 12 5 17 0 24 -2 18 -5z m-70 -10 c-7
-2 -21 -2 -30 0 -10 3 -4 5 12 5 17 0 24 -2 18 -5z m-1576 -9 c-3 -3 -12 -4
-19 -1 -8 3 -5 6 6 6 11 1 17 -2 13 -5z m1516 -1 c-7 -2 -21 -2 -30 0 -10 3
-4 5 12 5 17 0 24 -2 18 -5z m-1713 -18 c19 -7 28 -13 20 -13 -8 0 -31 6 -50
13 -19 7 -28 13 -20 13 8 0 31 -6 50 -13z m243 8 c-7 -2 -19 -2 -25 0 -7 3 -2
5 12 5 14 0 19 -2 13 -5z m1395 0 c-10 -2 -26 -2 -35 0 -10 3 -2 5 17 5 19 0
27 -2 18 -5z m-1335 -10 c-7 -2 -21 -2 -30 0 -10 3 -4 5 12 5 17 0 24 -2 18
-5z m1255 0 c-10 -2 -26 -2 -35 0 -10 3 -2 5 17 5 19 0 27 -2 18 -5z m-1195
-10 c-7 -2 -21 -2 -30 0 -10 3 -4 5 12 5 17 0 24 -2 18 -5z m1095 0 c-15 -2
-42 -2 -60 0 -18 2 -6 4 27 4 33 0 48 -2 33 -4z m-1391 -9 c-3 -3 -12 -4 -19
-1 -8 3 -5 6 6 6 11 1 17 -2 13 -5z m361 -1 c-10 -2 -26 -2 -35 0 -10 3 -2 5
17 5 19 0 27 -2 18 -5z m920 0 c-10 -2 -28 -2 -40 0 -13 2 -5 4 17 4 22 1 32
-1 23 -4z m-1208 -13 c20 -6 21 -8 5 -8 -11 0 -31 4 -45 8 -20 6 -21 8 -5 8
11 0 31 -4 45 -8z m378 3 c-10 -2 -28 -2 -40 0 -13 2 -5 4 17 4 22 1 32 -1 23
-4z m570 0 c-10 -2 -28 -2 -40 0 -13 2 -5 4 17 4 22 1 32 -1 23 -4z m-180 -10
c-64 -2 -172 -2 -240 0 -68 1 -15 3 117 3 132 0 187 -2 123 -3z m-705 -10 c-7
-2 -19 -2 -25 0 -7 3 -2 5 12 5 14 0 19 -2 13 -5z m50 -10 c-7 -2 -19 -2 -25
0 -7 3 -2 5 12 5 14 0 19 -2 13 -5z m60 -10 c-7 -2 -21 -2 -30 0 -10 3 -4 5
12 5 17 0 24 -2 18 -5z m60 -10 c-7 -2 -21 -2 -30 0 -10 3 -4 5 12 5 17 0 24
-2 18 -5z m75 -10 c-10 -2 -26 -2 -35 0 -10 3 -2 5 17 5 19 0 27 -2 18 -5z
m95 -10 c-13 -2 -33 -2 -45 0 -13 2 -3 4 22 4 25 0 35 -2 23 -4z m285 -10
c-42 -2 -114 -2 -160 0 -46 1 -11 3 77 3 88 0 125 -2 83 -3z"/>
<path d="M2515 8699 c-4 -6 -5 -12 -2 -15 2 -3 7 2 10 11 7 17 1 20 -8 4z"/>
<path d="M2340 8580 c-9 -6 -10 -10 -3 -10 6 0 15 5 18 10 8 12 4 12 -15 0z"/>
<path d="M2280 8545 c-14 -8 -20 -14 -14 -15 5 0 19 7 30 15 24 18 16 19 -16
0z"/>
<path d="M2169 8473 c-13 -16 -12 -17 4 -4 9 7 17 15 17 17 0 8 -8 3 -21 -13z"/>
<path d="M1999 8353 c-13 -17 -13 -17 6 -3 11 8 22 16 24 17 2 2 0 3 -6 3 -6
0 -17 -8 -24 -17z"/>
<path d="M1906 8275 c-11 -8 -15 -15 -9 -15 6 0 16 7 23 15 16 19 11 19 -14 0z"/>
<path d="M1794 8178 l-19 -23 23 19 c21 18 27 26 19 26 -2 0 -12 -10 -23 -22z"/>
<path d="M1730 8119 c-35 -31 -35 -31 -3 -9 18 11 35 25 38 30 10 16 2 11 -35
-21z"/>
</g>
</svg>
